<?xml version="1.0" standalone="no"?><!DOCTYPE svg PUBLIC "-//W3C//DTD SVG 1.1//EN" "http://www.w3.org/Graphics/SVG/1.1/DTD/svg11.dtd"><svg class="icon" width="200px" height="190.16px" viewBox="0 0 1077 1024" version="1.1" xmlns="http://www.w3.org/2000/svg"><path fill="#333333" d="M505.863643 3.584591v3.584591l-10.497923 0.013466c-14.036731 0.021545-15.52066 0.81064-15.921941 8.459204l-0.30702 5.863002h-11.033861c-11.841809 0-15.466797 1.57011-15.501809 6.722118-0.040397 5.690639-0.907594 6.482427-7.44927 6.80022-5.652935 0.274702-6.285827 0.535938-6.921412 2.860132-1.842119 6.743664-7.325385 10.242074-16.061985 10.242074-9.622648 0-10.514083 0.667903-10.514082 7.882868v5.429404h-11.693685c-15.189402 0-14.930859-0.126578-14.930859 7.276908v6.035364h-11.548255c-14.438011 0-16.099689 0.851037-16.099689 8.249138v5.063134l-9.986224 0.013466c-14.860837 0.021545-16.63832 1.11766-16.63832 10.274391v4.047814h-10.524855c-12.919071 0-14.516113 0.840265-15.485649 8.154878l-0.684062 5.157394h-6.622471c-3.743487 0-6.619778 0.444371-6.619779 1.026093 0 0.565563-1.809801 1.812494-4.023575 2.771258-2.997483 1.298101-4.41139 2.733554-5.550596 5.628697l-1.527019 3.886224h-6.65479c-9.622648 0-9.891963 0.199294-9.891963 7.276909v6.035363h-12.084193c-14.039424 0-14.540351 0.272009-14.540351 7.882869v5.429403h-11.332802c-14.384148 0-15.291742 0.457837-15.291742 7.715893v5.596379h-11.777173c-13.996334 0-15.870771 1.012627-15.870771 8.569624v4.473333l-10.920749 0.484768c-12.547416 0.557483-14.044811 1.497395-15.254038 9.555319l-0.684061 4.5649-6.283134 0.078101c-10.25554 0.126578-17.502823 4.050507-18.72013 10.137041-0.584415 2.924768-0.786402 3.016335-7.395408 3.307196l-6.79214 0.301633-0.304327 6.39894-0.30702 6.401633H103.821179c-14.876996 0-15.754965 0.430905-15.754965 7.715893v5.596379h-12.253862c-13.966709 0-14.370682 0.239691-14.370682 8.550771v4.589139l-12.205385 0.342031c-14.058276 0.393201-13.595053 0.150817-14.19832 7.411566l-0.457837 5.531743-12.937923 0.573642c-7.115319 0.315099-14.895848 0.867196-17.290064 1.230773L0 265.4348v44.841054h3.511876c2.843973 0 3.576512 0.430905 3.840441 2.262251 0.436291 3.019028 3.194083 3.657306 16.312448 3.781192l10.864193 0.099647 0.579029 5.607151c0.816026 7.912493 0.441678 7.70512 14.10406 7.705121h12.229623v4.893465c0 8.645032 1.257704 9.444899 14.90662 9.444899H88.066214v5.42671c0 7.645871 0.455143 7.885562 15.003574 7.885562h12.544722l0.30702 6.39894 0.304327 6.398939 6.910639 0.304327 6.913333 0.301634v3.342207c0 6.587461 6.272361 9.733067 19.595406 9.832714l5.771434 0.045783 0.670596 4.467947c1.152671 7.675496 1.879823 8.103708 14.661543 8.631566l11.289712 0.465916 0.484768 5.052361c0.689448 7.174569 1.21192 7.446577 15.113993 7.834392l12.191919 0.339338 0.301634 6.315452 0.304326 6.315451 13.056423 0.288168 13.056422 0.285475v5.157394c0 8.938586 0.280088 9.119028 14.370682 9.119028h12.253862v5.504811c0 6.765209 0.915673 7.60278 8.739292 8.004061 5.615231 0.288168 6.137703 0.519779 6.463576 2.846666 0.86989 6.164635 8.615407 10.182824 19.740836 10.239381 6.180794 0.029625 7.039911 1.101501 7.039911 8.776997 0 2.919382 6.428564 4.5649 17.839468 4.5649h7.50044l0.498234 5.178939c0.697528 7.263443 1.233466 7.554304 14.656157 7.979823l11.731389 0.374349v4.5649c0 8.324546 0.347417 8.52384 14.882382 8.52384h12.765562v6.547063c0 7.990595-0.382428 7.791301 14.930859 7.791301h11.693685v5.504812c0 6.754436 0.918366 7.60278 8.67735 8.004061 5.970728 0.309713 6.059602 0.360883 6.951036 3.89969 1.465077 5.801059 8.545385 9.215981 19.110638 9.215981h5.173553l0.651744 4.074746c1.206534 7.548917 4.551434 9.167504 19.032536 9.210595l7.885562 0.026931 0.30702 5.84415c0.371656 7.085694 0.654437 7.214966 15.921941 7.365782l10.497923 0.10234v4.67532c0 9.170197-2.060265 8.634259 33.279334 8.634259s33.282027 0.535938 33.282026-8.634259v-4.67532l8.960132-0.013466c15.948872-0.018852 16.449799-0.231611 17.246973-7.284988l0.681369-6.013818 7.802074-0.026931c14.553817-0.043091 18.555847-2.068344 18.555847-9.38565v-3.899691h6.59554c3.627682 0 6.881015-0.463223 7.228432-1.026092 0.35011-0.56287 1.642825-1.028786 2.878984-1.036866 4.233642-0.029625 7.26075-2.415761 8.445738-6.657482l1.141899-4.080132 6.019204-0.315099c7.732052-0.40128 8.653111-1.252318 8.653112-8.004061v-5.504812h12.251168c14.095981 0 14.370682-0.175055 14.370683-9.148652v-5.189712h12.765561c14.534965 0 14.885075-0.199294 14.885075-8.52384v-4.5649l11.728696-0.374349c13.422691-0.425519 13.95863-0.71638 14.656157-7.979823l0.498234-5.178939 7.807461-0.026932c14.427239-0.043091 16.878011-1.246931 18.017216-8.847019l0.665209-4.438321h5.073907c11.682912 0 19.670814-4.007417 20.562249-10.317482 0.320486-2.270331 0.877969-2.510022 6.460882-2.79819 7.823619-0.40128 8.739292-1.238852 8.739293-8.004061v-5.504811h11.701764c14.047504 0 14.92278-0.514393 14.92278-8.776997v-5.561368h12.67938c14.319512 0 13.89938 0.269316 13.929005-8.960131l0.013466-4.352141h10.686444c14.777349 0 15.938099-0.546711 15.9381-7.524679v-5.52905l11.91183-0.455143c13.479248-0.517086 14.136378-0.886048 15.299822-8.645032l0.670596-4.467947h5.437482c13.107592 0 18.418497-2.396909 19.369181-8.739292l0.686755-4.57298h6.482427c7.398101 0 7.726666-0.355497 7.726666-8.276069v-5.036203h12.595892c14.602294 0 15.054744-0.236998 15.054745-7.885562v-5.42671h11.717923c13.646223 0 14.906621-0.799867 14.906621-9.444899v-4.893465h24.375758l1.123046-3.223709c0.619426-1.77479 1.123046-4.76958 1.123047-6.654789v-3.433774h10.112802c13.718939 0 16.511742-0.627505 16.511742-3.71117 0-2.095276 0.495541-2.43192 3.584591-2.43192H1077.262554v-44.841054l-4.352141-0.684062c-2.394216-0.374349-9.996996-0.921059-16.896863-1.214613l-12.544722-0.530552v-4.524503c0-7.551611-1.906755-8.620794-15.359071-8.620793h-11.26278v-5.046975c0-7.683575-1.050331-8.265297-14.92278-8.265297h-11.701764v-5.596379c0-7.284988-0.880662-7.715893-15.757658-7.715893h-11.793332l-0.304327-6.401633-0.30702-6.39894-7.422339-0.301633-7.425032-0.301634v-3.032494c0-5.809138-7.449271-9.978144-18.060307-10.110109l-6.283133-0.078101-0.684062-4.5649c-1.222693-8.149491-2.663532-9.024767-15.77651-9.563399l-11.421676-0.471302v-5.526357c0-6.975275-1.16075-7.521986-15.9381-7.521986h-10.686444v-5.046975c0-7.683575-1.047638-8.265297-14.920087-8.265297h-11.701764v-5.596379c0-7.258056-0.910287-7.715893-15.294435-7.715893h-11.330109v-6.035363c0-7.077615-0.272009-7.276909-9.889271-7.276909h-6.649403l-1.685916-3.953553c-1.217307-2.849359-2.771258-4.422163-5.555981-5.628697-2.127594-0.923753-3.870066-2.138366-3.870066-2.703929 0-0.579029-2.865518-1.026093-6.592847-1.026093h-6.592847l-0.710993-4.745341c-1.152671-7.683575-2.728167-8.56693-15.286356-8.566931h-10.75108v-4.653774c0-8.057924-2.658145-9.681897-15.82768-9.681897h-10.796864v-5.063134c0-7.398101-1.664371-8.249138-16.102382-8.249138h-11.548254v-5.429404c0-7.61086-0.500927-7.882869-14.540352-7.882868h-12.081499v-5.429404c0-7.223045-0.888742-7.882869-10.565253-7.882868-8.801235 0-15.353685-4.204017-16.234346-10.414436-0.309713-2.194922-0.894128-2.410375-7.249977-2.690463l-6.913333-0.301634v-4.381765c0-7.427725-2.477704-8.836246-15.555671-8.836246h-10.813023l-0.471302-5.669094c-0.649051-7.842471-1.098808-8.101014-14.680396-8.499602l-11.726003-0.344724V0h-66.56136v3.584591m39.936816 89.528598c0 6.918719 1.575496 8.265297 9.689977 8.265297 6.105386 0 6.509359 0.148124 7.136864 2.647373 0.918366 3.668079 5.108918 7.592008 8.103708 7.592007 1.37351 0 2.763178 0.692141 3.086357 1.535099 0.433598 1.128433 2.213775 1.537792 6.69788 1.537793 6.627858 0 6.460882-0.161589 7.715893 7.309226 0.75947 4.508344 1.650905 4.844988 15.043972 5.674481l9.856952 0.611346 0.611346 5.154702c0.837572 7.083001 1.249625 7.301147 14.534965 7.721279l11.73139 0.374349 0.013465 4.753421c0.026932 7.648564 0.261236 7.780529 14.747725 8.162957l12.792493 0.339337 0.301633 6.318145 0.304327 6.315452 13.056422 0.288168 13.056422 0.285474v5.908785c0 7.352317 0.999161 8.367637 8.259911 8.367637h5.806445l0.568256 4.236335c0.915673 6.821765 5.959955 9.075937 20.319865 9.075937 5.865695 0 6.005739 0.064636 6.019204 2.814349 0.040397 7.963663 2.426534 9.444899 16.509049 10.231301l9.867725 0.549404 0.484768 5.038895c0.684062 7.123399 1.257704 7.427725 14.645385 7.820926l11.728696 0.344724v4.958101c0 7.583928 1.079956 8.176423 14.920086 8.176423h11.704458v5.038896c0 8.534613-0.457837 8.273376 14.443397 8.273376h13.204546v5.550595c0 8.494215 0.258543 8.787769 7.777836 8.78777h6.533597l0.659823 4.131302c0.953377 5.962648 7.737438 9.135186 19.587327 9.164811 6.094613 0.013466 6.401633 0.134658 6.401633 2.507328 0 7.645871 2.887064 9.485297 16.851079 10.734922 7.575849 0.675982 8.235672 0.856424 3.627682 0.983002-7.422339 0.207373-8.01214 0.721766-8.386489 7.317306l-0.3151 5.609844-11.71523 0.290861c-13.748563 0.342031-14.397614 0.702914-14.397614 8.025606v5.507505h-12.084193c-14.017879 0-14.540351 0.280088-14.540351 7.799381v5.340529l-12.37236 0.342031c-14.174082 0.390508-15.275583 1.020706-15.275583 8.72852v4.414083h-8.577703c-14.971256 0-18.046841 1.912141-18.046841 11.230462v3.10521h-9.681898c-13.689314 0-15.353685 1.001854-16.150858 9.727681-0.277395 3.048653-0.333951 3.075585-7.193421 3.374524-3.800044 0.166976-6.910639 0.743311-6.910639 1.27925 0 0.538631-0.654437 0.977616-1.454305 0.977616-3.274878 0-7.616246 3.619602-8.860484 7.392714l-1.276556 3.872759h-6.409713c-9.353332 0-9.646886 0.223532-9.646886 7.276908v6.035364h-11.332802c-14.384148 0-15.291742 0.457837-15.291742 7.715893v5.596379h-11.704457c-13.872449 0-14.920086 0.581722-14.920087 8.265297v5.046975h-11.311257c-13.417305 0-16.336687 1.618587-16.336686 9.051698v4.026269l-10.866886 0.403974c-12.504325 0.463223-14.085208 1.454304-15.307901 9.601102l-0.684062 4.5649h-8.329933c-11.559027 0.002693-15.192095 1.866357-16.371697 8.402648l-0.86989 4.82075-6.810992 0.29894-6.8083 0.301634-0.304326 6.398939-0.30702 6.401633h-12.544723c-14.548431 0-15.003574 0.239691-15.003574 7.885562v5.42671h-14.238718l-0.307019-6.401633-0.304327-6.398939-13.056422-0.288168-13.056422-0.285474v-6.094613c0-6.810992-0.059249-6.862162-9.205209-7.398101-3.177925-0.185828-4.661854-0.746004-4.796511-1.807108-1.36543-10.659513-2.238013-11.26278-16.253199-11.26278h-9.679204v-4.653774c0-8.141412-2.601589-9.681897-16.33938-9.681897h-11.311257v-5.596379c0-7.258056-0.907594-7.715893-15.291742-7.715893h-11.332802v-4.67532c0-8.405341-0.385121-8.636953-14.370682-8.636952h-12.251169v-5.42671c0-6.878321-1.079956-7.885562-8.429579-7.885562-4.801898 0-6.075761-0.352803-6.50128-1.793642-2.655452-8.97629-6.590154-11.268166-19.630417-11.437836l-6.401632-0.080794v-4.607991c0-7.645871-1.869051-8.704281-15.359071-8.704281h-11.265473v-4.028962c0-9.02746-0.395894-9.28331-14.30874-9.28331h-12.313111v-5.558675c0-8.308387-0.824106-8.776997-15.386003-8.776997h-12.164987l-0.30702-6.401633-0.304327-6.398939-6.840617-0.301634c-6.533597-0.288168-6.867549-0.428212-7.460043-3.121368-0.929139-4.239028-5.224723-8.354171-8.72044-8.354171-1.632053 0-3.253333-0.46053-3.603444-1.023399-0.347417-0.56287-3.342207-1.023399-6.652096-1.0234h-6.021898l-0.665209-4.438322c-1.139205-7.600087-3.589977-8.803928-18.017216-8.849711l-7.807461-0.024239-0.49554-5.181633c-0.700221-7.271522-1.201148-7.538145-15.429093-8.206047l-12.496246-0.584415 12.033023-0.183135c14.332978-0.215453 16.129314-1.203841 16.129313-8.884723v-4.60799l7.422339-0.024239c13.969402-0.048477 17.376245-1.729006 18.56662-9.164811l0.643665-4.026269 6.396246-0.304326c5.943796-0.285475 6.420485-0.484768 6.751743-2.865519 0.193907-1.408521 2.33766-4.519116 4.761501-6.913332l4.40331-4.352141h17.613243v-13.312272h11.844502c14.928166 0 15.806135-0.425519 15.806135-7.715893V222.212333h11.26278c13.49002 0 15.359071-1.061104 15.359071-8.704281v-4.607991h9.762692c13.95863 0 16.861852-1.378896 16.861852-7.995981v-5.028123l8.448431-0.530552c12.116511-0.762163 15.78459-2.539646 17.3547-8.405341l1.246931-4.664547h5.728344c7.182648 0 8.184502-1.026093 8.184502-8.397261v-5.941103h12.690153c14.327592 0 13.931698 0.234305 13.931698-8.27607v-5.036202l11.009623-0.013466c15.679556-0.018852 15.614921 0.010773 15.614921-7.163796v-5.916865l12.237703-0.366269c13.883221-0.412053 14.2064-0.581722 15.070903-7.864017l0.624812-5.297438 6.258896-0.099647c3.441854-0.053863 8.790462-0.630199 11.890285-1.279249l5.63139-1.182296 0.953377-5.37554 0.956071-5.37554h6.565915c5.467107 0 6.644017-0.309713 7.04799-1.850199 0.266622-1.01532 2.275717-2.954393 4.467947-4.30905 2.192229-1.354658 4.120529-3.40415 4.284812-4.554127 0.261236-1.823267 1.139205-2.122207 6.956423-2.351126 11.340882-0.444371 11.26278-0.393201 11.26278-7.435805V88.066214h14.338364v5.046975M59.392178 467.122589c-4.548741 1.284636-8.930507 5.410551-9.759999 9.189049-0.61404 2.803576-0.888742 2.927461-6.50128 2.927461-7.231125 0-8.313774 1.026093-8.313773 7.885562v5.42671h-12.092272c-9.049005 0-12.593199 0.377042-14.079822 1.502781-1.093421 0.826799-3.487638 1.51894-5.316291 1.5351L0 495.621569v47.105999h3.379911c1.858278 0 3.953554 0.576335 4.659161 1.279249 0.840265 0.842958 5.601765 1.403134 13.907459 1.637439l12.628211 0.35819 0.487461 5.079293c0.689448 7.15841 1.26309 7.468123 14.532272 7.85863l11.607504 0.342031 0.46053 5.545209c0.603267 7.276909 0.137351 7.031831 14.19832 7.425032l12.205385 0.342031v4.589139c0 8.354171 0.342031 8.550772 14.882382 8.550771h12.765561v6.547063c0 7.990595-0.382428 7.791301 14.930859 7.791302h11.693685v5.42671c0 7.258056 0.859117 7.885562 10.837262 7.885562 7.810154 0 8.496908 0.172362 10.058939 2.558498 0.923753 1.408521 2.310728 2.561192 3.080971 2.561192 1.524327 0 2.647373 2.159911 2.647372 5.092759 0 2.429227 1.974084 3.099823 9.13788 3.099823h5.898012l1.214614 4.058586c1.389669 4.640308 4.435629 7.204193 8.553465 7.204194 1.564724 0 2.843973 0.46053 2.843973 1.023399 0 0.579029 2.900529 1.026093 6.654789 1.026093h6.657483v3.980485c0 7.174569 1.925607 8.335319 14.992801 9.024767l11.397438 0.600574 0.484768 5.033509c0.681369 7.09916 1.260397 7.408873 14.642692 7.831699l11.731389 0.374349v3.918542c0 8.954745 0.35011 9.170197 14.823132 9.170198h12.824811v6.108078c0 7.839778 0.721766 8.230286 15.291742 8.230286h11.332802v4.67532c0 8.405341 0.385121 8.636953 14.370683 8.636952h12.253861v5.046975c0 7.683575 1.047638 8.265297 14.920087 8.265297h11.704457v5.42671c0 7.643178 0.455143 7.885562 15.003574 7.885562h12.544723l0.30702 6.39894 0.304326 6.398939 6.784061 0.301634 6.784061 0.29894 0.538632 4.780353c0.821413 7.284988 2.887064 8.445738 15.057437 8.445738h9.996996l0.675983 4.863841c1.152671 8.273376 1.960618 8.760838 15.404854 9.27523l11.731389 0.449757 0.30702 5.224724c0.403973 6.926798 2.181457 7.799381 15.919248 7.818233l10.497923 0.016159v5.046975c0 7.683575 1.047638 8.265297 14.920087 8.265297h11.704457v5.596379c0 7.500441 0.55479 7.715893 19.967062 7.715893 19.412271 0 19.969755-0.215453 19.969754-7.715893v-5.596379l9.983531-0.016159c14.680395-0.018852 16.63832-1.16883 16.63832-9.759999v-3.536114l5.378233-0.010773c15.353685-0.024238 21.246311-2.693156 21.246311-9.619955v-3.584591l6.401633-0.304326 6.398939-0.304327 0.301634-6.883708 0.304327-6.883708 13.522338-0.285474 13.519645-0.285475 0.30702-6.398939 0.304326-6.39894h11.653288c13.818585 0 14.87161-0.587108 14.87161-8.265297v-5.046975h10.088563c14.750418 0 16.53598-0.842958 16.535981-7.780529v-5.531743h6.005738c14.362603 0 19.406885-2.254172 20.319865-9.075937l0.568256-4.236335h5.806445c7.177262 0 8.262604-1.036865 8.262604-7.885562v-5.42671h12.251169c14.090594 0 14.370682-0.180441 14.370682-9.119027v-5.157395l13.056422-0.285474 13.056422-0.288168 0.301634-6.293907 0.304327-6.291213 12.189225-0.363576c13.893994-0.412053 14.427239-0.689448 15.113994-7.837085l0.484768-5.033509 10.212449-0.667903c12.889446-0.845651 13.885914-1.37351 14.742338-7.834392l0.675982-5.100838h6.415099c7.319999 0 7.656644-0.366269 7.656644-8.27607v-5.036202h11.693685c15.192095 0 14.930859 0.126578 14.930859-7.279602v-6.03267h11.777172c14.058276 0 15.873464-0.996468 15.873464-8.704282v-4.60799h9.660352c13.923619 0 16.961499-2.027947 16.961499-11.319337v-2.819734l9.663045-0.355497c11.01501-0.403973 15.116687-2.822428 16.401323-9.671125 0.646358-3.449933 0.7083-3.482251 6.156555-3.482251 8.354171 0 8.741986-0.323179 8.741986-7.279601v-6.032671h11.330109c14.384148 0 15.294435-0.46053 15.294435-7.718586v-5.593686h11.615583c13.6947 0 15.006267-0.748697 15.006268-8.529226v-4.783046l11.009623-0.016159c12.283486-0.013466 15.614921-0.581722 15.614921-2.663531 0-0.937218 1.217307-1.4166 3.584591-1.416601H1077.262554V481.571373l-5.37554-0.794482c-2.957086-0.436291-10.672979-1.074569-17.147327-1.421986l-11.769093-0.627506-0.837572-5.292052c-1.114967-7.018366 0.008079-6.765209-32.212844-7.279602-34.685161-0.552097-33.010018-0.904901-33.010017 6.959117v6.124237h-12.084193c-14.039424 0-14.540351 0.272009-14.540351 7.885562v5.42671h-11.332802c-14.384148 0-15.291742 0.457837-15.291742 7.715893v5.596379h-11.777173c-14.007106 0-15.870771 1.009934-15.870771 8.591169v4.494878l-11.362427 0.387815c-13.032184 0.447064-13.767415 0.902207-14.871609 9.234833l-0.654437 4.939249-7.804767 0.10234c-12.420837 0.161589-17.532448 2.954393-17.532448 9.571477v3.544194l-6.913333 0.304327-6.910639 0.301633-0.304327 6.39894-0.304327 6.401633h-11.796025c-14.876996 0-15.754965 0.430905-15.754964 7.715893v5.596379h-11.618277c-13.6947 0-15.006267 0.746004-15.006267 8.529226v4.783046l-10.497924 0.013465c-13.799733 0.021545-15.515274 0.877969-15.924634 7.947505l-0.309713 5.351302-6.347769 0.059249c-15.035892 0.14543-19.118717 2.049492-20.096333 9.374877l-0.584415 4.389845-6.913333 0.301634c-5.927637 0.261236-6.910639 0.573642-6.910639 2.192229 0 1.158057-0.983002 2.138366-2.539646 2.528874-1.508168 0.379735-3.476865 2.28649-4.863841 4.710331l-2.326887 4.074745-7.826312 0.00808c-8.890109 0.008079-9.067858 0.172362-9.067858 8.284149v5.036202h-11.693685c-15.189402 0-14.930859-0.126578-14.930859 7.276909v6.035363h-11.777173c-14.058276 0-15.870771 0.993775-15.87077 8.704282v4.60799l-7.936732 0.024239c-14.567283 0.043091-17.007283 1.233466-18.149181 8.849711l-0.66521 4.438322h-6.1781c-5.020044 0-6.264282 0.333951-6.644017 1.790949-0.258543 0.985695-2.076424 2.843973-4.039735 4.131302s-3.993951 3.45532-4.51373 4.82075c-0.880662 2.316114-1.51894 2.504635-9.434127 2.782031l-8.488829 0.29894-0.304326 6.910639-0.301634 6.913333h-41.892047v-5.547903c0-9.094789 0.484768-8.787769-13.931698-8.787769h-12.690153v-5.429403c0-6.870242-1.079956-7.882869-8.397262-7.882869-4.879999 0-5.941103-0.30702-5.941103-1.720927 0-7.648564-4.152847-10.398277-17.063839-11.292405l-8.359557-0.576335-0.654437-3.70309c-0.360883-2.036026-0.880662-4.473333-1.158057-5.415937-0.654437-2.23532-8.483443-3.915849-18.248828-3.91585h-7.497747l-0.681369-6.016511c-0.797174-7.053377-1.298101-7.266136-17.246973-7.284988l-8.960132-0.010773v-4.028962c0-9.02746-0.398587-9.28331-14.311433-9.28331h-12.313111v-5.036202c0-8.537306 0.455143-8.27607-14.446091-8.27607h-13.204545v-6.547063c0-7.987902 0.382428-7.788608-14.930859-7.788608h-11.693685v-5.429404c0-7.128785-0.945298-7.882869-9.90543-7.882868-7.231125 0-7.495054-0.088874-9.02746-3.056733-0.86989-1.677836-2.897836-3.732715-4.50565-4.5649-1.607814-0.832185-3.164459-2.429227-3.458013-3.54958-0.449757-1.720927-1.545872-2.087196-7.039911-2.345739-6.08384-0.288168-6.530904-0.476689-6.813686-2.868212-0.974923-8.219513-2.200309-8.943972-16.721808-9.891963l-9.854259-0.640971-0.579028-5.593686c-0.746004-7.247284 0.008079-6.856776-14.098674-7.276909l-12.202692-0.363576v-3.921236c0-8.906268-0.420132-9.175584-14.311433-9.175583h-12.313111v-5.119691c0-8.289535-1.599735-9.215981-15.873463-9.215981h-11.777173v-6.035363c0-7.403487 0.261236-7.276909-14.930859-7.276909h-11.693685v-5.429403c0-7.09916-0.96415-7.882869-9.711522-7.882869-6.977968 0-7.322692-0.118499-9.070551-3.078278-1.001854-1.691302-3.115982-3.746181-4.699558-4.567593-1.583576-0.81872-3.121368-2.404989-3.414922-3.525342-0.449757-1.720927-1.545872-2.087196-7.026445-2.345739l-6.495893-0.30702-0.592495-3.584591c-1.133819-6.864856-2.243399-7.823619-9.886577-8.545385-9.986224-0.942605-26.831917-0.65713-31.022468 0.525166m2.049492 214.9058c-0.845651 0.517086-3.29373 1.62936-5.442869 2.47501-2.962472 1.166137-4.322516 2.526181-5.63139 5.647549l-1.726314 4.109757-5.852228 0.010773c-6.932185 0.010773-7.971743 1.206534-7.971743 9.159424v5.18702H21.564103c-7.729359 0-13.514259 0.425519-13.883221 1.023399-0.35011 0.56287-2.219161 1.023399-4.158233 1.023399H0V758.794118h3.522649c1.939073 0 3.808123 0.46053 4.158233 1.0234 0.368962 0.597881 6.105386 1.026093 13.740484 1.026092h13.110285l0.565563 6.223885c0.724459 7.985209-0.064636 7.543531 14.139071 7.939425l12.205385 0.34203v4.591832c0 8.308387 0.403973 8.550772 14.370682 8.550772h12.253862v5.046975c0 7.726666 0.999161 8.265297 15.383309 8.265297h12.164987l0.30702 6.398939 0.304327 6.39894 6.840617 0.301633c6.571302 0.290861 6.864856 0.414746 7.473509 3.186004 1.384282 6.2966 9.032847 10.320175 19.643883 10.330948l5.286666 0.00808 0.70022 4.35214c1.368123 8.499602 2.122207 8.960131 14.736952 8.960132h11.111963l0.482075 5.7849c0.66521 8.02022 1.645519 8.550772 15.841146 8.550771h11.580573v5.596379c0 7.255363 0.907594 7.715893 15.291742 7.715893h11.332802v4.67532c0 8.405341 0.385121 8.636953 14.370682 8.636952h12.253862v5.42671c0 7.177262 0.918366 7.885562 10.220528 7.885562 7.664723 0 7.775142 0.037704 8.908962 3.040574 0.7083 1.87713 2.555805 3.711169 4.834215 4.796511 2.229933 1.063797 3.684238 2.49117 3.684238 3.616909 0 1.599735 0.904901 1.858278 6.536291 1.858278 7.083001 0 7.750904 0.624812 7.785915 7.298454 0.021545 4.239028 2.122207 5.079293 14.279115 5.720264l11.335495 0.597881v3.896997c0 8.601941 0.807947 9.110948 14.499954 9.110948h12.12459v5.11969c0 8.286842 1.597042 9.215981 15.870771 9.215982h11.777173v6.03267c0 7.40618-0.258543 7.279602 14.930859 7.279602h11.693685v5.42671c0 7.206886 0.896821 7.885562 10.44406 7.885562 8.688122 0 15.491036 4.330595 16.352846 10.414435 0.30702 2.167991 0.921059 2.413068 6.735584 2.690464l6.393553 0.304326 0.65713 4.107064c1.182296 7.387328 2.466931 8.119866 15.485649 8.806621l11.515937 0.60596v5.275894c0 7.443884 0.541324 7.732052 14.540351 7.732052h12.084193v7.166489h66.56136v-7.166489h11.179292c14.324899 0 14.195627 0.061943 15.006268-7.118013l0.667903-5.903398 10.336334-0.675983c11.890285-0.781015 14.432625-2.240706 15.56375-8.943972l0.67329-3.983178h5.849535c7.223045 0 8.308387-1.028786 8.308388-7.885562v-5.42671h11.701764c13.840131 0 14.92278-0.592494 14.92278-8.179116v-4.963488l12.205384-0.34203c14.050197-0.393201 13.595053-0.15351 14.192935-7.381942l0.457836-5.499425 10.551787-0.471303c13.282647-0.589801 15.350991-1.72362 16.344766-8.960131l0.710993-5.162781h6.560529c5.752582 0 6.560529-0.239691 6.560529-1.939072 0-1.16075 0.931832-2.170684 2.32958-2.520795 1.281942-0.323179 3.468785-2.43192 4.863841-4.691478l2.53426-4.107064 6.827151-0.026931c9.827328-0.040397 10.069712-0.215453 10.069712-7.306534v-6.03267h12.0815c14.017879 0 14.540351-0.282781 14.540351-7.799381v-5.343222l12.375054-0.342031c14.136378-0.390508 15.275583-1.031479 15.275583-8.612714v-4.295584l10.667592-0.395894c12.472007-0.46053 14.451477-1.567417 15.515274-8.658498l0.673289-4.489492h5.52905c3.040574 0 6.328918-0.449757 7.309227-0.999161 0.977616-0.549404 3.533421-1.688609 5.68256-2.53426 2.946313-1.16075 4.330595-2.536953 5.63139-5.612538l1.726313-4.074746 6.657482-0.301633 6.65479-0.301634 0.304327-6.913332 0.301633-6.910639h13.156069c14.833905 0 14.400307 0.245077 14.400307-8.192582v-4.950021l12.205385-0.342031c14.077128-0.393201 13.59236-0.137351 14.203707-7.511213l0.468609-5.628697 7.80746-0.083488c9.342559-0.099647 16.929181-1.869051 17.203883-4.012803 0.110419-0.845651 0.476689-3.24256 0.816027-5.329757l0.616732-3.791964 6.363929-0.304327 6.361235-0.301633 0.30702-6.401633 0.304327-6.398939h12.544722c14.548431 0 15.006267-0.239691 15.006268-7.885562v-5.42671h11.717923c13.646223 0 14.906621-0.799867 14.906621-9.4449v-4.890772h12.22693c13.665075 0 13.288034 0.20468 14.10406-7.707813l0.579028-5.604459H1077.262554v-38.913416h-10.131655c-11.149667 0-11.373199-0.131965-11.373199-6.716732 0-5.224723-3.005563-6.673642-15.237879-7.346931l-10.18821-0.560177-0.654437-3.697703c-1.147285-6.4932-1.613201-7.196114-5.467108-8.265297-5.009271-1.392362-30.464985-1.357351-37.025514 0.05117-6.307372 1.351965-8.033685 2.940927-8.868564 8.176423l-0.643664 4.023575h-5.809138c-7.271522 0-8.265297 1.009934-8.265297 8.397262v5.93841h-12.690153c-14.314126 0-13.934391-0.223532-13.934391 8.192581v4.952715l-12.84097 0.339338c-14.56459 0.385121-14.766576 0.498234-14.793508 8.276069l-0.013466 4.863841h-10.193597c-14.201014 0-16.379777 1.303488-16.417481 9.832714l-0.013466 3.177924-9.471831 0.565563c-12.049182 0.721766-14.876996 1.949845-15.679556 6.802913-1.036865 6.264282-1.009934 6.24543-7.476202 6.24543-6.932185 0-7.309226 0.425519-7.309227 8.276069v5.036203h-12.595892c-14.726179 0-15.052051 0.183135-15.052051 8.397261v5.93841h-12.253862c-13.966709 0-14.370682 0.239691-14.370682 8.550772v4.589138l-12.205385 0.342031c-14.077128 0.393201-13.595053 0.140044-14.2064 7.511213l-0.465916 5.63139-8.321853 0.005386c-14.631919 0.010773-18.009137 1.685916-18.033375 8.954745l-0.016159 4.352141h-6.996821c-3.84852 0-7.338851 0.344724-7.753597 0.76755-0.414746 0.422826-2.679691 1.246931-5.033509 1.834039-3.953554 0.985695-4.365606 1.413907-5.386313 5.63139l-1.106887 4.567593-6.027284 0.312407c-7.737438 0.403973-8.655805 1.252318-8.655805 8.00406v5.507505h-12.253861c-14.095981 0-14.370682 0.175055-14.370683 9.148652v5.18702h-12.765561c-14.561897 0-14.882382 0.185828-14.882382 8.636952v4.67532h-23.656686l-1.483929 3.54958c-0.816026 1.955232-1.483929 4.879999-1.483929 6.503972v2.9517l-10.328255 0.675982c-12.999866 0.851037-14.00172 1.378896-14.855451 7.796688l-0.670596 5.057747-6.784061 0.301634c-6.592847 0.290861-6.797527 0.379735-7.118012 3.175231-0.180441 1.580883-1.090728 3.169845-2.025253 3.528035-0.931832 0.35819-2.782031 1.941766-4.11245 3.522649-2.270331 2.698543-2.905916 2.873598-10.446754 2.873598-9.816555 0-11.243928 1.050331-11.243928 8.265297v5.046975h-14.338364v-6.035364c0-7.131478-0.183135-7.26075-10.578719-7.319999-7.995981-0.045784-16.045826-5.046975-16.045825-9.970065 0-2.59351-1.850198-3.299117-8.655805-3.299116h-5.415938l-0.675982-5.100839c-0.859117-6.468962-1.844812-6.988741-14.860837-7.842471l-10.325561-0.675982v-2.852053c0-8.852405-2.006402-10.118189-16.080837-10.137041l-11.470153-0.016158-0.304327-6.401633-0.30702-6.39894-13.056422-0.285474-13.056422-0.288168v-5.157395c0-8.938586-0.280088-9.116334-14.370682-9.116334h-12.251169v-5.507505c0-6.762516-0.918366-7.60278-8.733906-8.00406-5.547902-0.285475-6.159249-0.546711-6.722118-2.873598-1.47585-6.116158-2.100662-6.856776-6.897174-8.162957-2.631214-0.719073-7.893641-1.516247-11.696378-1.77479l-6.913332-0.471303-0.013466-4.265959c-0.026932-7.177262-3.452626-8.860485-18.036068-8.871258l-8.319161-0.005386-0.468609-5.63139c-0.611346-7.371169-0.126578-7.118012-14.203707-7.511213l-12.205384-0.342031v-4.589138c0-8.351478-0.35011-8.550772-14.839292-8.550772h-12.717084l-0.301634-6.913332-0.304327-6.91064-13.056422-0.288167-13.056422-0.285475v-5.397085c0-6.757129-1.104194-7.853244-7.915186-7.853244-5.803752 0-5.844149-0.035011-6.870242-6.24543-0.802561-4.853068-3.630375-6.081147-15.676864-6.802913l-9.471831-0.565563-0.016159-3.177924c-0.037704-8.588476-2.181457-9.832714-16.929181-9.832714h-10.705296v-6.024591c0-7.301147 0.099647-7.255363-15.614921-7.274216l-11.009623-0.013465v-5.036203c0-8.510374 0.395894-8.27607-13.931698-8.276069h-12.690153v-5.93841c0-7.387328-0.996468-8.397262-8.26799-8.397262H100.616323l-0.627506-3.923929c-0.816026-5.100838-3.156379-7.091081-9.830021-8.356864-6.711346-1.27117-26.621851-1.255011-28.717126 0.026932" /></svg>