<?xml version="1.0" standalone="no"?><!DOCTYPE svg PUBLIC "-//W3C//DTD SVG 1.1//EN" "http://www.w3.org/Graphics/SVG/1.1/DTD/svg11.dtd"><svg t="1606122353325" class="icon" viewBox="0 0 1024 1024" version="1.1" xmlns="http://www.w3.org/2000/svg" p-id="8247" xmlns:xlink="http://www.w3.org/1999/xlink" width="200" height="200"><defs><style type="text/css"></style></defs><path d="M512 1024C794.76979 1024 1024 794.76979 1024 512 1024 229.230208 794.76979 0 512 0 229.230208 0 0 229.230208 0 512 0 794.76979 229.230208 1024 512 1024ZM406.016 674.9696C406.016 686.984595 403.106164 695.995703 397.2864 702.0032 391.466636 708.010697 381.986198 711.0144 368.8448 711.0144 355.703402 711.0144 346.410694 708.010697 340.9664 702.0032 335.522106 695.995703 332.8 687.172325 332.8 675.5328L332.8 343.2448C332.8 319.214813 344.814814 307.2 368.8448 307.2 380.859795 307.2 390.058636 309.82824 396.4416 315.0848 402.824564 320.34136 406.016 329.540201 406.016 342.6816L406.016 674.9696ZM468.5312 350.0032C468.5312 342.118359 469.18826 335.735491 470.5024 330.8544 471.81654 325.973309 474.350913 322.21868 478.1056 319.5904 481.860284 316.96212 487.210633 315.178671 494.1568 314.24 501.102967 313.301329 510.207942 312.832 521.472 312.832L600.8832 312.832C625.664123 312.832 646.596181 314.897046 663.68 319.0272 680.763819 323.157354 694.749812 330.103418 705.6384 339.8656 716.526988 349.627781 724.411709 362.487388 729.2928 378.4448 734.173891 394.402212 736.6144 414.020151 736.6144 437.2992 736.6144 460.578249 733.986161 480.477785 728.7296 496.9984 723.473039 513.519015 715.400588 527.035682 704.512 537.5488 693.623412 548.061918 679.637419 555.758909 662.5536 560.64 645.469781 565.521091 624.913186 567.9616 600.8832 567.9616L541.7472 567.9616 541.7472 681.728C541.7472 689.237371 538.931227 695.995703 533.2992 702.0032 527.667173 708.010697 518.280598 711.0144 505.1392 711.0144 491.997802 711.0144 482.611227 707.822964 476.9792 701.44 471.347173 695.057036 468.5312 688.486434 468.5312 681.728L468.5312 350.0032ZM541.7472 504.8832 600.8832 504.8832C624.913186 504.8832 641.339689 499.626718 650.1632 489.1136 658.986711 478.600482 663.3984 461.516919 663.3984 437.8624 663.3984 425.471939 661.802684 415.334441 658.6112 407.4496 655.419716 399.564759 651.008027 393.275757 645.376 388.5824 639.743973 383.889043 633.173371 380.697607 625.664 379.008 618.154629 377.318393 609.894444 376.4736 600.8832 376.4736L541.7472 376.4736 541.7472 504.8832Z" p-id="8248"></path></svg>