<?xml version="1.0" standalone="no"?><!DOCTYPE svg PUBLIC "-//W3C//DTD SVG 1.1//EN" "http://www.w3.org/Graphics/SVG/1.1/DTD/svg11.dtd"><svg t="1606124160095" class="icon" viewBox="0 0 1024 1024" version="1.1" xmlns="http://www.w3.org/2000/svg" p-id="36437" xmlns:xlink="http://www.w3.org/1999/xlink" width="200" height="200"><defs><style type="text/css"></style></defs><path d="M529.088 1.92l383.552 59.392c27.264 4.224 47.36 27.648 47.36 55.232V623.36c0 149.44-128.192 276.16-384.512 380.16l-22.976 9.088c-26.048 10.176-54.976 10.176-81.024 0C199.808 906.944 64 777.152 64 623.36V116.48c0-27.52 20.096-51.008 47.36-55.232L494.912 1.92c11.328-1.792 22.848-1.792 34.176 0zM640 256H448L384 576h64l-32 192L704 448H576l64-192z" p-id="36438"></path></svg>