<?xml version="1.0" standalone="no"?><!DOCTYPE svg PUBLIC "-//W3C//DTD SVG 1.1//EN" "http://www.w3.org/Graphics/SVG/1.1/DTD/svg11.dtd"><svg t="1606123549386" class="icon" viewBox="0 0 1024 1024" version="1.1" xmlns="http://www.w3.org/2000/svg" p-id="24734" xmlns:xlink="http://www.w3.org/1999/xlink" width="200" height="200"><defs><style type="text/css"></style></defs><path d="M102.4 1024 102.4 204.8 296.5504 0 921.6 0 921.6 1024 102.4 1024ZM716.8 136.533333 375.466667 136.533333 375.466667 477.866667 443.733333 477.866667 443.733333 204.8 648.533333 204.8 648.533333 477.866667 716.8 477.866667 716.8 136.533333ZM512 341.333333 512 750.933333 580.266667 750.933333 580.266667 341.333333 512 341.333333ZM716.8 614.4 648.533333 614.4 648.533333 819.2 443.733333 819.2 443.733333 614.4 375.466667 614.4 375.466667 887.466667 716.8 887.466667 716.8 614.4Z" p-id="24735"></path></svg>