<?xml version="1.0" standalone="no"?><!DOCTYPE svg PUBLIC "-//W3C//DTD SVG 1.1//EN" "http://www.w3.org/Graphics/SVG/1.1/DTD/svg11.dtd"><svg t="1606123532846" class="icon" viewBox="0 0 1024 1024" version="1.1" xmlns="http://www.w3.org/2000/svg" p-id="23981" xmlns:xlink="http://www.w3.org/1999/xlink" width="200" height="200"><defs><style type="text/css"></style></defs><path d="M733.405 608.865A745.444 745.444 0 0 0 742.4 512a745.444 745.444 0 0 0-8.995-96.865h179.892A378.88 378.88 0 0 1 921.6 512a378.88 378.88 0 0 1-8.303 96.865z m-88.839 290.594a791.248 791.248 0 0 0 75.002-179.891h138.378a388.428 388.428 0 0 1-213.38 179.891z m-8.025-290.594H387.459A608.865 608.865 0 0 1 384 512a605.959 605.959 0 0 1 3.46-96.865h249.08A678.054 678.054 0 0 1 640 512a681.098 681.098 0 0 1-3.46 96.865zM512 919.525a678.054 678.054 0 0 1-96.865-199.957h193.73A678.054 678.054 0 0 1 512 919.524zM304.432 304.431H152.216a412.921 412.921 0 0 1 226.664-179.89 872.752 872.752 0 0 0-74.448 179.891zM152.216 719.568h152.216a872.752 872.752 0 0 0 74.448 179.891 416.796 416.796 0 0 1-226.664-179.891z m-41.513-110.703A378.88 378.88 0 0 1 102.4 512a378.88 378.88 0 0 1 8.303-96.865h179.892A745.444 745.444 0 0 0 281.6 512a745.444 745.444 0 0 0 8.995 96.865zM512 103.922a681.237 681.237 0 0 1 96.865 200.51h-193.73A681.237 681.237 0 0 1 512 103.922z m359.784 200.51H719.568a792.355 792.355 0 0 0-75.002-179.891 415.135 415.135 0 0 1 227.218 179.891zM512 0a512 512 0 1 0 512 512A512 512 0 0 0 512 0z" p-id="23982"></path></svg>