<?xml version="1.0" standalone="no"?><!DOCTYPE svg PUBLIC "-//W3C//DTD SVG 1.1//EN" "http://www.w3.org/Graphics/SVG/1.1/DTD/svg11.dtd"><svg t="1606124993103" class="icon" viewBox="0 0 1024 1024" version="1.1" xmlns="http://www.w3.org/2000/svg" p-id="51768" xmlns:xlink="http://www.w3.org/1999/xlink" width="200" height="200"><defs><style type="text/css"></style></defs><path d="M921.601463 304.786286c-56.539429 0-102.4 46.445714-102.4 103.570285 0 13.677714 2.633143 26.624 7.314286 38.546286L665.601463 512 557.715749 293.741714c33.645714-16.822857 56.685714-52.004571 56.685714-92.598857A103.131429 103.131429 0 0 0 512.001463 97.572571c-56.539429 0-102.4 46.445714-102.4 103.570286 0 40.594286 23.04 75.776 56.612571 92.598857L358.401463 512l-160.914286-65.097143c4.681143-11.922286 7.314286-24.868571 7.314286-38.546286a103.131429 103.131429 0 0 0-102.4-103.570285c-56.539429 0-102.4 46.445714-102.4 103.570285A102.985143 102.985143 0 0 0 119.443749 510.537143l54.564571 327.899428c5.12 51.858286 51.2 87.990857 97.28 87.990858h476.233143c51.2 0 92.086857-36.132571 102.4-87.990858l54.564571-327.899428A103.058286 103.058286 0 0 0 1024.001463 408.356571a103.131429 103.131429 0 0 0-102.4-103.570285zM593.921463 806.765714h-166.034286v-31.085714h64.877714V559.250286l-66.486857 18.870857v-33.060572l102.985143-29.476571v259.949714h64.658286v31.158857z" p-id="51769"></path></svg>