<?xml version="1.0" standalone="no"?><!DOCTYPE svg PUBLIC "-//W3C//DTD SVG 1.1//EN" "http://www.w3.org/Graphics/SVG/1.1/DTD/svg11.dtd"><svg t="1606122865638" class="icon" viewBox="0 0 1301 1024" version="1.1" xmlns="http://www.w3.org/2000/svg" p-id="14556" xmlns:xlink="http://www.w3.org/1999/xlink" width="254.1015625" height="200"><defs><style type="text/css"></style></defs><path d="M305.404 257.497H41.918C17.965 257.497 0 275.462 0 299.415v670.69c0 29.942 17.965 47.907 41.918 47.907h257.497c23.953 0 41.918-17.965 41.918-47.907v-670.69c5.989-23.953-11.976-41.918-35.93-41.918zM173.66 928.187c-23.953 0-47.907-17.965-47.907-47.906 0-23.954 17.965-47.907 47.907-47.907 23.953 0 47.906 17.965 47.906 47.907 0 23.953-23.953 47.906-47.906 47.906z m83.836-317.38H83.837v-89.825h173.66v89.825z m0-179.65H83.837v-83.835h173.66v83.836zM820.397 0H479.065c-23.953 0-47.906 23.953-47.906 47.906v922.2c0 23.952 23.953 47.906 47.906 47.906h341.334c23.953 0 47.906-23.954 47.906-47.907V47.906C862.316 23.953 844.351 0 820.398 0z m-173.66 928.187c-23.953 0-47.907-17.965-47.907-47.906 0-23.954 17.965-47.907 47.907-47.907 23.953 0 47.906 17.965 47.906 47.907 0 23.953-17.965 47.906-47.906 47.906zM778.48 347.322H514.994v-83.837H778.48v83.837z m0-173.661H514.994V89.825H778.48v83.836z m473.076 83.836H994.058c-23.953 0-41.918 17.965-41.918 47.907v670.69c0 23.953 17.965 47.906 41.918 47.906h257.498c23.953 0 41.918-17.965 41.918-47.906V299.415c0-23.953-17.965-41.918-41.918-41.918zM1125.8 928.187c-23.953 0-47.906-17.965-47.906-47.906 0-23.954 17.965-47.907 47.906-47.907 23.953 0 47.907 17.965 47.907 47.907-5.989 23.953-23.954 47.906-47.907 47.906z m83.836-317.38h-173.66v-89.825h173.66v89.825z m0-179.65h-173.66v-83.835h173.66v83.836z m0 0" p-id="14557"></path></svg>