<?xml version="1.0" standalone="no"?><!DOCTYPE svg PUBLIC "-//W3C//DTD SVG 1.1//EN" "http://www.w3.org/Graphics/SVG/1.1/DTD/svg11.dtd"><svg t="1606124999582" class="icon" viewBox="0 0 1024 1024" version="1.1" xmlns="http://www.w3.org/2000/svg" p-id="52173" xmlns:xlink="http://www.w3.org/1999/xlink" width="200" height="200"><defs><style type="text/css"></style></defs><path d="M921.601463 304.786286c-56.539429 0-102.4 46.445714-102.4 103.570285 0 13.677714 2.633143 26.624 7.314286 38.546286L665.601463 512 557.715749 293.741714c33.645714-16.822857 56.685714-52.004571 56.685714-92.598857A103.131429 103.131429 0 0 0 512.001463 97.572571c-56.539429 0-102.4 46.445714-102.4 103.570286 0 40.594286 22.966857 75.776 56.612571 92.598857L358.401463 512l-160.914286-65.097143c4.681143-11.922286 7.314286-24.868571 7.314286-38.546286a103.131429 103.131429 0 0 0-102.4-103.570285c-56.539429 0-102.4 46.445714-102.4 103.570285A102.985143 102.985143 0 0 0 119.443749 510.537143l54.564571 327.899428c5.12 51.858286 51.2 87.990857 97.28 87.990858h476.233143c51.2 0 92.086857-36.132571 102.4-87.990858l54.564571-327.899428A103.058286 103.058286 0 0 0 1024.001463 408.356571a103.131429 103.131429 0 0 0-102.4-103.570285z m-334.409143 469.942857v32.036571H411.06432v-31.305143l84.114286-82.651428c23.186286-22.747429 38.765714-40.886857 46.518857-54.125714 7.899429-13.312 11.849143-27.062857 11.849143-41.325715 0-16.164571-4.681143-28.598857-13.897143-37.229714s-22.528-12.946286-39.936-12.946286c-25.819429 0-50.468571 10.825143-73.874286 32.329143v-36.571428a128 128 0 0 1 79.652572-25.965715c26.038857 0 46.592 6.948571 61.659428 20.772572 15.067429 13.897143 22.674286 32.548571 22.674286 55.954285 0 17.627429-4.827429 34.962286-14.482286 51.931429-9.654857 16.969143-27.940571 38.619429-54.857143 64.877714l-65.974857 63.488v0.731429h132.681143z" p-id="52174"></path></svg>