<?xml version="1.0" standalone="no"?><!DOCTYPE svg PUBLIC "-//W3C//DTD SVG 1.1//EN" "http://www.w3.org/Graphics/SVG/1.1/DTD/svg11.dtd"><svg t="1606121833074" class="icon" viewBox="0 0 1024 1024" version="1.1" xmlns="http://www.w3.org/2000/svg" p-id="4085" width="400" height="400" xmlns:xlink="http://www.w3.org/1999/xlink"><defs><style type="text/css"></style></defs><path d="M890.575238 249.904762v109.714286a26.209524 26.209524 0 0 1-8.167619 19.260952 26.575238 26.575238 0 0 1-19.260952 8.167619H150.613333a27.855238 27.855238 0 0 1-27.428571-27.428571V249.904762a26.209524 26.209524 0 0 1 8.167619-19.260952 26.575238 26.575238 0 0 1 19.260952-8.16762h712.533334a27.855238 27.855238 0 0 1 27.428571 27.428572z m0 219.428571v109.714286a26.209524 26.209524 0 0 1-8.167619 19.260952 26.575238 26.575238 0 0 1-19.260952 8.167619H150.613333a27.855238 27.855238 0 0 1-27.428571-27.428571V469.333333a27.855238 27.855238 0 0 1 27.428571-27.428571h712.533334a27.855238 27.855238 0 0 1 27.428571 27.428571z m0 219.428572v109.714285a26.209524 26.209524 0 0 1-8.167619 19.260953 26.575238 26.575238 0 0 1-19.260952 8.167619H150.613333a27.855238 27.855238 0 0 1-27.428571-27.428572v-109.714285a27.855238 27.855238 0 0 1 27.428571-27.428572h712.533334a27.855238 27.855238 0 0 1 27.428571 27.428572zM397.287619 551.497143h438.491429v-54.857143H397.287619z m164.571429 219.428571h274.285714v-54.857143h-274.285714z m109.714285-438.491428h164.571429v-54.857143h-164.571429z" p-id="4086"></path></svg>