<?xml version="1.0" standalone="no"?><!DOCTYPE svg PUBLIC "-//W3C//DTD SVG 1.1//EN" "http://www.w3.org/Graphics/SVG/1.1/DTD/svg11.dtd"><svg t="1606125130154" class="icon" viewBox="0 0 1024 1024" version="1.1" xmlns="http://www.w3.org/2000/svg" p-id="55215" xmlns:xlink="http://www.w3.org/1999/xlink" width="200" height="200"><defs><style type="text/css"></style></defs><path d="M512 85.333333c-234.666667 0-426.666667 192-426.666667 426.666667s192 426.666667 426.666667 426.666667 426.666667-192 426.666667-426.666667S746.666667 85.333333 512 85.333333zM512 853.333333c-187.733333 0-341.333333-153.6-341.333333-341.333333s153.6-341.333333 341.333333-341.333333 341.333333 153.6 341.333333 341.333333S699.733333 853.333333 512 853.333333zM430.933333 462.933333c2.133333-14.933333 6.4-25.6 12.8-36.266667 6.4-10.666667 14.933333-19.2 25.6-25.6 10.666667-6.4 23.466667-10.666667 38.4-10.666667 10.666667 0 19.2 2.133333 27.733333 6.4 8.533333 4.266667 17.066667 8.533333 21.333333 14.933333 6.4 6.4 10.666667 14.933333 14.933333 23.466667s4.266667 17.066667 6.4 27.733333l76.8 0c0-19.2-4.266667-38.4-10.666667-55.466667-6.4-17.066667-17.066667-32-29.866667-42.666667-12.8-12.8-27.733333-21.333333-46.933333-27.733333s-38.4-10.666667-59.733333-10.666667c-27.733333 0-51.2 4.266667-72.533333 14.933333-21.333333 8.533333-38.4 23.466667-51.2 38.4-12.8 17.066667-23.466667 36.266667-29.866667 57.6s-10.666667 44.8-10.666667 70.4l0 10.666667c0 25.6 4.266667 46.933333 10.666667 70.4s17.066667 40.533333 29.866667 57.6c12.8 17.066667 29.866667 29.866667 51.2 38.4 21.333333 10.666667 44.8 14.933333 72.533333 14.933333 19.2 0 38.4-4.266667 55.466667-10.666667s32-14.933333 46.933333-27.733333 23.466667-25.6 32-40.533333c8.533333-14.933333 12.8-32 12.8-49.066667l-76.8 0c0 8.533333-2.133333 17.066667-6.4 25.6-4.266667 8.533333-8.533333 14.933333-14.933333 19.2-6.4 4.266667-12.8 8.533333-21.333333 12.8-8.533333 2.133333-17.066667 4.266667-25.6 4.266667-14.933333 0-27.733333-4.266667-38.4-10.666667-10.666667-6.4-19.2-14.933333-25.6-25.6s-10.666667-23.466667-12.8-38.4c-2.133333-14.933333-2.133333-27.733333-2.133333-42.666667l0-10.666667C426.666667 490.666667 426.666667 477.866667 430.933333 462.933333z" p-id="55216"></path></svg>