<?xml version="1.0" standalone="no"?><!DOCTYPE svg PUBLIC "-//W3C//DTD SVG 1.1//EN" "http://www.w3.org/Graphics/SVG/1.1/DTD/svg11.dtd"><svg t="1606123867096" class="icon" viewBox="0 0 1024 1024" version="1.1" xmlns="http://www.w3.org/2000/svg" p-id="30204" xmlns:xlink="http://www.w3.org/1999/xlink" width="200" height="200"><defs><style type="text/css"></style></defs><path d="M895.195994 767.547432c-32.30277 0-61.974545 12.497225-84.630334 32.448937L597.674327 609.322326a223.269145 223.269145 0 0 0 39.903422-127.457083 220.053485 220.053485 0 0 0-23.752037-100.489386l139.588893-115.032941a155.959527 155.959527 0 0 0 221.515149 4.311908 156.617276 156.617276 0 0 0 4.311908-221.953648 155.740278 155.740278 0 0 0-221.515149-4.384991 157.640441 157.640441 0 0 0-28.502444 189.650878L592.850837 346.807508a222.026731 222.026731 0 0 0-178.907649-89.673074 221.880565 221.880565 0 0 0-133.596071 44.288413l-62.486128-80.976175A128.553331 128.553331 0 0 0 219.980402 39.419611 127.968666 127.968666 0 0 0 39.464923 37.300198a128.918747 128.918747 0 0 0-2.704078 181.465561 128.626414 128.626414 0 0 0 148.212709 25.359867l65.190205 84.849584a218.664904 218.664904 0 0 0-59.855132 152.305367c0 58.905051 22.655789 114.521359 63.582375 156.617276l-54.958559 74.544854a127.457083 127.457083 0 0 0-177.299819 35.153014 127.895582 127.895582 0 0 0 35.006848 177.665235 127.384 127.384 0 0 0 164.583344-19.293962 128.187915 128.187915 0 0 0 6.796737-165.971924l55.543224-76.152684a218.299488 218.299488 0 0 0 129.357246 41.072753 221.515149 221.515149 0 0 0 158.371273-65.921038l212.891332 191.258708a128.626414 128.626414 0 0 0 45.238495 175.545823 127.895582 127.895582 0 0 0 175.107323-45.384661 128.626414 128.626414 0 0 0-45.238495-175.545823 125.922336 125.922336 0 0 0-64.093957-17.320716z" p-id="30205"></path></svg>