<?xml version="1.0" standalone="no"?><!DOCTYPE svg PUBLIC "-//W3C//DTD SVG 1.1//EN" "http://www.w3.org/Graphics/SVG/1.1/DTD/svg11.dtd"><svg t="1606123814921" class="icon" viewBox="0 0 1382 1024" version="1.1" xmlns="http://www.w3.org/2000/svg" p-id="29191" xmlns:xlink="http://www.w3.org/1999/xlink" width="269.921875" height="200"><defs><style type="text/css"></style></defs><path d="M665.6 614.4a102.4 102.4 0 1 0-102.4-102.4 102.44 102.44 0 0 0 102.4 102.4z m-358.4 0a102.4 102.4 0 1 0-102.4-102.4 102.44 102.44 0 0 0 102.4 102.4zM1356.8 153.6a25.6 25.6 0 0 0-25.6 25.6v691.2a102.44 102.44 0 0 1-102.4 102.4H179.2a25.6 25.6 0 0 0 0 51.2h1049.6a153.58 153.58 0 0 0 153.6-153.6V179.2a25.6 25.6 0 0 0-25.6-25.6zM1075.2 870.4a153.58 153.58 0 0 0 153.6-153.6V153.6A153.58 153.58 0 0 0 1075.2 0H153.6A153.58 153.58 0 0 0 0 153.6v563.2a153.58 153.58 0 0 0 153.6 153.6z m-54.48-512a154 154 0 0 1 30.52 3.12 25.608 25.608 0 0 1-10.24 50.18c-63.18-13.06-122 37.02-122 100.3s58.82 113.36 122 100.26a25.608 25.608 0 0 1 10.24 50.18 151 151 0 0 1-30.56 3.18c-84 0-152.48-68.92-152.48-153.6s68.46-153.62 152.52-153.62zM512 230.4a25.6 25.6 0 1 1 51.2 0v167.84a153.6 153.6 0 1 1 0 227.54v14.24a25.6 25.6 0 1 1-51.2 0z m-204.8 128a152.68 152.68 0 0 1 102.4 39.84V384a25.6 25.6 0 1 1 51.2 0v256a25.6 25.6 0 1 1-51.2 0v-14.24a153.38 153.38 0 1 1-102.4-267.36z" p-id="29192"></path></svg>