<?xml version="1.0" standalone="no"?><!DOCTYPE svg PUBLIC "-//W3C//DTD SVG 1.1//EN" "http://www.w3.org/Graphics/SVG/1.1/DTD/svg11.dtd"><svg t="1606122719816" class="icon" viewBox="0 0 1024 1024" version="1.1" xmlns="http://www.w3.org/2000/svg" p-id="12404" xmlns:xlink="http://www.w3.org/1999/xlink" width="200" height="200"><defs><style type="text/css"></style></defs><path d="M332.8 32H192C115.2 32 32 83.2 32 166.4v147.2C32 384 108.8 467.2 192 467.2h147.2c147.2 0 134.4-6.4 134.4-160V166.4C467.2 83.2 416 32 332.8 32m0 524.8H192c-76.8 0-160 51.2-160 134.4V832c0 76.8 76.8 160 160 160h147.2c76.8 0 134.4-76.8 134.4-160v-147.2c-6.4-134.4 0-128-140.8-128M857.6 32h-147.2c-76.8 0-160 51.2-160 134.4v147.2c0 147.2 12.8 160 160 160h147.2c76.8 0 134.4-76.8 134.4-160V166.4c0-83.2-51.2-134.4-134.4-134.4m0 524.8h-147.2c-147.2 0-160-12.8-160 134.4V832c0 76.8 76.8 160 160 160h147.2c76.8 0 134.4-76.8 134.4-160v-147.2c0-76.8-51.2-128-134.4-128" fill="" p-id="12405"></path></svg>