<?xml version="1.0" standalone="no"?><!DOCTYPE svg PUBLIC "-//W3C//DTD SVG 1.1//EN" "http://www.w3.org/Graphics/SVG/1.1/DTD/svg11.dtd"><svg t="1606124920639" class="icon" viewBox="0 0 1024 1024" version="1.1" xmlns="http://www.w3.org/2000/svg" p-id="50947" xmlns:xlink="http://www.w3.org/1999/xlink" width="200" height="200"><defs><style type="text/css"></style></defs><path d="M1004.416 498.496L618.624 113.28c-13.568-13.568-32.384-25.28-55.04-35.072C540.288 68.48 519.552 64 500.736 64H379.392c18.816 0 40.32 4.544 62.848 14.272 23.36 9.856 41.472 20.8 55.04 35.072l385.728 385.28c13.504 14.272 19.968 30.528 19.968 49.408 0 18.816-6.4 35.008-19.968 48.64L630.272 850.56c10.944 10.88 20.672 18.816 28.672 24.128 7.872 5.312 18.816 7.168 31.616 7.168 18.88 0 35.072-6.4 49.408-19.968l264.448-265.6A65.92 65.92 0 0 0 1024 547.52c0-18.88-6.4-34.304-19.584-49.024z m-187.264 49.856c0-18.88-6.4-35.072-19.584-49.472L411.776 113.344c-13.568-13.568-32.384-25.28-55.04-35.072C333.44 68.48 312.704 64 293.888 64H69.312c-18.816 0-35.008 7.168-48.64 20.736-13.504 13.44-20.672 29.76-20.672 48.64v224.064c0 18.88 4.48 40.32 14.336 63.04 9.856 23.36 20.672 41.472 35.008 55.04l385.728 386.304c13.568 13.568 29.824 19.584 48.64 19.584 18.88 0 35.072-6.464 49.408-19.584l264.448-264.896a70.4 70.4 0 0 0 19.584-48.64zM221.184 286.08a66.048 66.048 0 0 1-48.64 20.032c-18.816 0-35.008-6.4-48.64-20.032a66.304 66.304 0 0 1-19.968-48.64c0-18.88 6.4-35.072 19.968-48.704 13.504-13.568 29.824-20.032 48.64-20.032s35.008 6.4 48.64 20.032c13.504 13.504 19.584 29.824 19.584 48.64 1.088 19.328-6.08 35.2-19.584 48.704z" fill="#000000" p-id="50948"></path></svg>