<?xml version="1.0" standalone="no"?><!DOCTYPE svg PUBLIC "-//W3C//DTD SVG 1.1//EN" "http://www.w3.org/Graphics/SVG/1.1/DTD/svg11.dtd"><svg t="1606124675960" class="icon" viewBox="0 0 1024 1024" version="1.1" xmlns="http://www.w3.org/2000/svg" p-id="45413" xmlns:xlink="http://www.w3.org/1999/xlink" width="200" height="200"><defs><style type="text/css"></style></defs><path d="M983.552 312.832c-26.624-62.464-63.488-116.736-109.568-162.816-46.592-46.592-100.864-82.944-162.816-109.568C648.704 13.312 582.144 0 512 0c-71.168 0-137.728 13.312-199.68 40.448-61.952 26.624-116.224 63.488-162.304 109.568-46.592 46.592-82.944 100.864-109.568 162.816C13.312 375.296 0 441.856 0 512c0 71.168 13.312 137.728 40.448 200.192 26.624 62.464 63.488 116.736 109.568 162.304 46.592 46.08 100.352 82.432 162.304 109.056C374.272 1010.176 440.832 1024 512 1024c31.232 0 61.44-2.56 90.112-7.68 29.184-5.12 57.344-12.8 84.992-23.04V704c0-24.576 7.68-45.056 23.552-61.44 15.36-16.384 34.816-24.576 58.368-24.576h244.736c3.584-16.896 6.144-33.792 8.192-51.712s2.56-35.84 2.56-54.784c-0.512-69.632-13.824-136.192-40.96-198.656z m-380.416 340.48c-3.584 5.632-8.704 12.288-15.36 19.456s-8.704 19.456-6.656 35.84c2.048 12.8 2.56 22.528 0.512 28.16-2.048 5.632-4.096 10.24-6.656 13.824-2.56 3.072-5.632 7.168-8.704 11.264-3.072 4.096-5.632 11.264-7.168 20.48-1.536 10.24-1.536 20.992-0.512 32.768s1.536 23.04 1.536 34.304-1.536 21.504-4.096 31.744c-3.072 9.728-8.704 17.408-17.408 23.552-8.704 5.632-14.336 9.216-16.384 9.728-2.048 0.512-3.072 0.512-3.072 0s-0.512 0.512-2.048 3.072c-3.072 4.096-9.216 6.656-18.944 6.656-9.216 0-17.408-1.024-25.6-2.56-0.512 0-1.024 0-2.048-0.512 0.512 0 1.536 0.512 2.048 0.512 2.56 0 2.56-1.536 0-5.632-3.072-4.608-6.656-10.24-11.264-16.384s-9.728-12.288-14.848-18.432c-5.12-6.144-8.192-10.24-8.704-12.288-1.536-7.168-4.096-12.288-8.704-15.872-4.096-3.072-9.216-6.144-14.848-9.216-5.632-3.072-11.264-6.144-16.896-9.728-5.632-3.584-11.264-9.216-16.384-17.408-3.584-5.12-3.584-10.24-0.512-15.872s6.656-10.752 10.752-15.36c4.096-4.608 6.656-9.728 8.704-14.848 2.048-5.12-0.512-10.752-7.168-16.384-5.632-5.12-11.264-8.704-16.384-11.264-5.12-2.56-9.216-4.608-12.288-6.656-3.072-2.048-6.144-4.096-8.192-7.168s-3.072-7.168-3.072-12.8c-0.512-12.8-4.608-19.968-11.776-20.48-7.168-0.512-15.872 0.512-25.6 3.072-9.728 3.072-19.968 5.12-30.208 7.168-10.752 2.048-19.456-1.536-26.624-10.24-3.584-4.096-8.704-7.168-14.848-8.192s-12.8-2.048-19.968-2.56c-7.168-0.512-13.824-1.536-19.968-2.56s-11.264-3.584-14.848-7.168c-8.192-8.192-14.848-20.48-20.992-37.888-6.144-17.408-9.216-40.96-9.216-70.656 0-5.12 6.656-11.776 19.456-19.456 12.8-8.192 28.16-15.872 45.056-24.064 16.896-8.192 33.792-14.848 50.688-20.48s28.16-8.704 34.816-8.704c6.656 0 10.752 0 12.8 0.512s5.12 1.024 8.704 2.048 9.728 2.048 17.92 2.56c8.192 0.512 22.528 1.536 41.984 2.048 13.824 0.512 24.064 2.56 31.744 5.12 7.168 2.56 13.312 5.12 18.432 8.192 5.12 3.072 10.24 5.632 15.872 8.704 5.632 3.072 13.312 4.608 23.552 5.632 6.656 0.512 12.288 1.024 16.896 0.512 4.608-0.512 9.216-0.512 13.824-1.024 4.096-0.512 9.216-1.024 14.848-1.536 5.632-0.512 12.288-1.024 19.968-1.024 15.36 0 25.6 1.536 31.232 4.096 5.632 3.072 8.192 7.168 7.68 12.8-0.512 5.632-2.56 12.8-6.656 21.504s-7.68 18.944-11.264 30.208c-1.536 5.632 0 11.264 4.096 16.896 4.096 5.632 9.216 10.752 15.36 16.384 5.632 5.632 10.752 10.24 15.36 14.848 3.072 4.096 4.608 7.68 2.048 10.752z m296.96-215.04c-1.536 12.8-6.656 23.04-16.384 29.696-9.216 6.656-20.48 12.288-32.768 16.384s-24.576 7.68-36.352 10.24c-11.776 3.072-20.48 6.656-25.6 11.776-5.632 4.096-12.8 6.144-21.504 5.632-8.704-0.512-16.896-2.56-24.576-5.632-7.68-3.072-13.312-6.144-16.896-9.216-3.584-3.072-2.56-5.12 3.072-5.12-20.992 0-36.352 1.024-46.592 3.072-10.24 2.048-17.92 3.584-24.064 5.12-5.632 1.024-11.264 0.512-16.896-1.024-5.632-2.048-13.824-7.168-24.576-15.872-8.192-5.632-10.24-9.728-6.656-11.776 3.584-2.048 8.192-4.096 13.824-6.656 5.632-2.048 9.216-4.608 11.264-7.68s-2.048-7.68-12.8-14.336c-9.216-5.632-20.992-10.752-35.328-14.336-14.336-3.584-28.16-6.656-41.984-8.704-15.872-3.072-32.768-4.608-51.2-5.632-15.872-8.704-30.72-13.312-44.032-14.336-13.312-0.512-25.088-1.536-34.816-2.048-9.728-0.512-17.92-4.096-24.064-9.728-6.144-5.632-9.728-18.432-10.24-37.888-0.512-17.408 3.584-32.256 12.288-44.544 9.216-12.288 19.968-22.528 32.256-29.696 12.288-7.68 24.576-12.8 37.376-16.384 12.8-3.072 22.016-5.12 27.648-5.12 5.632 0 12.8-2.048 20.992-6.656 8.192-4.096 16.896-9.728 25.6-16.896 8.704-6.656 16.896-13.824 24.576-20.992 7.68-7.168 14.336-13.824 19.968-19.456 18.944-19.456 35.84-32.256 51.2-37.888 15.36-5.632 29.184-7.68 42.496-5.12 12.8 2.56 25.6 7.68 36.864 15.36 11.776 7.68 23.04 14.848 33.792 20.992 11.776 7.168 21.504 13.824 30.208 19.968 8.704 6.144 16.896 12.8 25.088 20.48s15.872 16.896 24.576 27.136c8.192 10.752 17.408 23.552 27.648 39.424 9.216 15.36 17.408 28.672 23.552 40.96 6.144 11.776 11.264 23.552 14.848 34.816 3.584 11.264 6.144 22.528 7.168 33.792 1.536 12.288 1.536 24.576 1.024 37.888z" p-id="45414"></path><path d="M1012.224 699.392c-8.192-8.192-17.92-12.288-30.208-12.288H792.064c-12.288 0-22.528 4.096-30.208 12.288-8.192 8.192-11.776 18.432-11.776 29.696v253.44c0 11.776 4.096 21.504 11.776 29.184 8.192 8.192 17.92 11.776 30.208 11.776h189.952c12.288 0 22.528-4.096 30.208-11.776 8.192-8.192 11.776-17.92 11.776-29.184v-253.44c0-11.264-4.096-20.992-11.776-29.696z m-45.568 229.376c0 8.192-6.656 15.36-15.36 15.36H821.76c-8.192 0-15.36-6.656-15.36-15.36v-28.16c0-8.192 6.656-15.36 15.36-15.36h129.536c8.192 0 15.36 6.656 15.36 15.36v28.16z m0-118.272c0 8.192-6.656 15.36-15.36 15.36H821.76c-8.192 0-15.36-6.656-15.36-15.36v-28.16c0-8.192 6.656-15.36 15.36-15.36h129.536c8.192 0 15.36 6.656 15.36 15.36v28.16z" p-id="45415"></path></svg>