<?xml version="1.0" standalone="no"?><!DOCTYPE svg PUBLIC "-//W3C//DTD SVG 1.1//EN" "http://www.w3.org/Graphics/SVG/1.1/DTD/svg11.dtd"><svg t="1606124316826" class="icon" viewBox="0 0 1024 1024" version="1.1" xmlns="http://www.w3.org/2000/svg" p-id="39954" xmlns:xlink="http://www.w3.org/1999/xlink" width="200" height="200"><defs><style type="text/css"></style></defs><path d="M866.815278 806.954848l116.735902 115.24257a35.413304 35.413304 0 0 1 0 50.389292 36.22397 36.22397 0 0 1-51.02929 0l-116.77857-115.327904a470.698274 470.698274 0 0 1-304.469079 110.933241 470.740941 470.740941 0 0 1-303.658414-110.250575l-116.095903 114.645238a36.394636 36.394636 0 0 1-51.071958 0 35.327971 35.327971 0 0 1 0-50.346625l115.925237-114.517238a457.940952 457.940952 0 0 1-114.261238-302.805081C42.111965 249.045979 252.15979 41.600819 511.231574 41.600819c259.114451 0 469.162276 207.402494 469.162276 463.316947a457.940952 457.940952 0 0 1-113.578572 302.037082z m-149.205209-103.295914a35.370637 35.370637 0 0 0-3.92533-50.261292l-177.237186-149.717208V326.272581a35.83997 35.83997 0 0 0-36.09597-35.626637 35.83997 35.83997 0 0 0-36.09597 35.626637v193.834506a35.413304 35.413304 0 0 0 12.629323 27.09331l189.866508 160.383867a36.266636 36.266636 0 0 0 50.858625-3.92533z m256.853119-475.562271a540.628883 540.628883 0 0 0-181.162516-179.541183A129.621225 129.621225 0 0 1 894.719254 0.000853C966.100528 0.000853 1023.999147 57.174139 1023.999147 127.70208c0 39.253301-18.261318 76.24527-49.535959 100.394583zM48.51196 227.328664A126.719894 126.719894 0 0 1 0 127.70208C0 93.867442 13.653322 61.355469 37.887968 37.419489A130.133225 130.133225 0 0 1 129.279892 0.000853c39.253301 0 76.37327 17.621319 100.863916 47.914627a540.500883 540.500883 0 0 0-181.674515 179.413184z" p-id="39955"></path></svg>