<?xml version="1.0" standalone="no"?><!DOCTYPE svg PUBLIC "-//W3C//DTD SVG 1.1//EN" "http://www.w3.org/Graphics/SVG/1.1/DTD/svg11.dtd"><svg t="1607355541755" class="icon" viewBox="0 0 1024 1024" version="1.1" xmlns="http://www.w3.org/2000/svg" p-id="4491" xmlns:xlink="http://www.w3.org/1999/xlink" width="200" height="200"><defs><style type="text/css"></style></defs><path d="M537.6 723.2c-19.2 6.4-38.4 12.8-57.6 19.2 0 12.8 0 32 0 44.8 0 0 0 0 0 6.4 12.8 6.4 32 6.4 57.6 12.8 0 12.8 6.4 25.6 12.8 38.4-19.2 12.8-32 32-38.4 38.4 6.4 12.8 19.2 25.6 25.6 38.4 12.8-6.4 32-12.8 51.2-19.2 6.4 12.8 19.2 19.2 32 25.6-6.4 19.2-12.8 38.4-12.8 57.6 12.8 6.4 25.6 19.2 44.8 19.2 12.8-12.8 25.6-25.6 38.4-44.8 12.8 6.4 25.6 6.4 38.4 6.4 6.4 19.2 12.8 38.4 12.8 57.6 12.8 0 32 0 44.8 0 0 0 0 0 6.4 0 6.4-12.8 6.4-32 12.8-57.6 12.8 0 25.6-6.4 38.4-12.8 12.8 19.2 32 32 38.4 38.4 12.8-6.4 25.6-19.2 38.4-25.6-6.4-12.8-12.8-32-19.2-51.2 6.4-6.4 19.2-19.2 25.6-32 19.2 6.4 38.4 12.8 57.6 12.8 6.4-12.8 19.2-25.6 19.2-44.8-12.8-12.8-25.6-25.6-44.8-38.4 6.4-12.8 6.4-25.6 6.4-38.4 19.2-6.4 38.4-12.8 57.6-12.8 0-12.8 0-32 0-44.8 0 0 0 0 0-6.4-12.8-6.4-32-6.4-57.6-12.8 0-12.8-6.4-25.6-12.8-38.4 19.2-12.8 32-32 38.4-38.4-6.4-12.8-19.2-25.6-25.6-38.4-12.8 6.4-32 12.8-51.2 19.2C902.4 595.2 896 582.4 883.2 576 889.6 556.8 896 537.6 896 518.4c-12.8-6.4-25.6-19.2-44.8-19.2C844.8 512 832 524.8 812.8 544c-12.8-6.4-25.6-6.4-38.4-6.4C774.4 512 768 492.8 761.6 480c-12.8 0-32 0-44.8 0 0 0 0 0-6.4 0C710.4 499.2 704 518.4 704 537.6c-12.8 0-25.6 6.4-38.4 12.8C652.8 537.6 633.6 518.4 627.2 512 608 518.4 595.2 531.2 582.4 537.6c6.4 12.8 12.8 32 19.2 51.2C595.2 601.6 582.4 608 576 620.8 556.8 614.4 537.6 608 518.4 608 512 620.8 505.6 633.6 499.2 652.8c12.8 12.8 25.6 25.6 44.8 38.4C537.6 697.6 537.6 710.4 537.6 723.2zM729.6 595.2c83.2-12.8 166.4 51.2 179.2 134.4 12.8 83.2-51.2 166.4-134.4 179.2-83.2 12.8-166.4-51.2-179.2-134.4C582.4 684.8 646.4 608 729.6 595.2z" p-id="4492"></path><path d="M755.2 748.8m-70.4 0a1.1 1.1 0 1 0 140.8 0 1.1 1.1 0 1 0-140.8 0Z" p-id="4493"></path><path d="M377.6 768 153.6 768C102.4 768 64 729.6 64 678.4L64 153.6C64 102.4 102.4 64 153.6 64l524.8 0C729.6 64 768 102.4 768 153.6l0 236.8c0 0 44.8 6.4 64 12.8L832 128c0-70.4-57.6-128-128-128L128 0C57.6 0 0 57.6 0 128l0 576c0 70.4 57.6 128 128 128l256 0C384 812.8 377.6 768 377.6 768z" p-id="4494"></path><path d="M64 256l704 0 0 64-704 0 0-64Z" p-id="4495"></path></svg>