<?xml version="1.0" standalone="no"?><!DOCTYPE svg PUBLIC "-//W3C//DTD SVG 1.1//EN" "http://www.w3.org/Graphics/SVG/1.1/DTD/svg11.dtd"><svg t="1606124303523" class="icon" viewBox="0 0 1024 1024" version="1.1" xmlns="http://www.w3.org/2000/svg" p-id="39201" xmlns:xlink="http://www.w3.org/1999/xlink" width="200" height="200"><defs><style type="text/css"></style></defs><path d="M636.94976 875.468224C636.887872 948.186624 575.06176 1007.104 497.639872 1007.104c-76.864896 0-139.248-58.669824-139.371776-131.635776H636.94976zM590.781312 102.548992C590.719424 55.328448 549.0688 16.896 497.70176 16.896c-51.36704 0-93.14144 38.37056-93.14144 85.652992 0 4.827264 0.433216 9.530752 1.23776 14.110464C277.38048 158.00064 183.9296 263.334016 183.9296 413.102976V578.22016s-12.06816 143.703936-57.432064 145.189248c-26.983168 0-47.715648 19.18528-47.715648 42.764608 0 23.82688 20.856256 42.826496 46.539776 42.826496h744.82208c25.807296 0 46.477888-19.18528 46.477888-42.826496 0-23.764992-20.794368-42.764608-46.477888-42.764608-46.539776 0-58.050944-145.189248-58.050944-145.189248V413.164864c0-149.954624-87.138304-255.473664-222.48736-296.567296 0.804544-4.579712 1.23776-9.2832 1.23776-14.048576z" p-id="39202"></path></svg>