<?xml version="1.0" standalone="no"?><!DOCTYPE svg PUBLIC "-//W3C//DTD SVG 1.1//EN" "http://www.w3.org/Graphics/SVG/1.1/DTD/svg11.dtd"><svg t="1606123258574" class="icon" viewBox="0 0 1024 1024" version="1.1" xmlns="http://www.w3.org/2000/svg" p-id="20000" xmlns:xlink="http://www.w3.org/1999/xlink" width="200" height="200"><defs><style type="text/css"></style></defs><path d="M418.4064 22.7328A131.8912 131.8912 0 0 1 542.72 198.656h183.364267c48.605867 0 87.927467 39.3216 87.927466 87.8592v183.364267a131.8912 131.8912 0 1 1 0 248.695466v183.364267c0 48.5376-39.3216 87.927467-87.927466 87.927467H542.788267a131.8912 131.8912 0 1 0-248.763734 0H110.592a87.927467 87.927467 0 0 1-87.927467-87.927467v-183.364267a131.8912 131.8912 0 1 0 0-248.695466V286.5152c0-48.5376 39.389867-87.927467 87.927467-87.927467h183.364267A131.8912 131.8912 0 0 1 418.474667 22.801067z" p-id="20001"></path></svg>