<?xml version="1.0" standalone="no"?><!DOCTYPE svg PUBLIC "-//W3C//DTD SVG 1.1//EN" "http://www.w3.org/Graphics/SVG/1.1/DTD/svg11.dtd"><svg t="1606125120036" class="icon" viewBox="0 0 1024 1024" version="1.1" xmlns="http://www.w3.org/2000/svg" p-id="54458" xmlns:xlink="http://www.w3.org/1999/xlink" width="200" height="200"><defs><style type="text/css"></style></defs><path d="M870.4 1024H153.6c-28.16 0-51.2-23.04-51.2-51.2V117.76c0-28.16 23.04-51.2 51.2-51.2h716.8c28.16 0 51.2 23.04 51.2 51.2v855.04c0 28.16-23.04 51.2-51.2 51.2z m-20.48-95.744V162.816c0-13.824-10.752-24.576-24.576-24.576H198.656c-13.824 0-24.576 10.752-24.576 24.576v765.44c0 13.824 10.752 24.576 24.576 24.576h626.688c13.824-0.512 24.576-11.264 24.576-24.576z" fill="" p-id="54459"></path><path d="M412.672 521.216h352.256c15.872 0 28.672 15.872 28.672 35.84s-12.8 35.84-28.672 35.84H412.672c-15.872 0-28.672-15.872-28.672-35.84s12.8-35.84 28.672-35.84zM329.216 204.8c-19.968 0-35.84-15.872-35.84-35.84V35.84c0-19.968 15.872-35.84 35.84-35.84s35.84 15.872 35.84 35.84v133.12c0 19.968-15.872 35.84-35.84 35.84zM702.976 204.8c-19.968 0-35.84-15.872-35.84-35.84V35.84c0-19.968 15.872-35.84 35.84-35.84s35.84 15.872 35.84 35.84v133.12c0 19.968-15.872 35.84-35.84 35.84z" fill="" p-id="54460"></path><path d="M288.768 557.056m-51.2 0a51.2 51.2 0 1 0 102.4 0 51.2 51.2 0 1 0-102.4 0Z" fill="" p-id="54461"></path><path d="M412.672 365.056h352.256c15.872 0 28.672 15.872 28.672 35.84s-12.8 35.84-28.672 35.84H412.672c-15.872 0-28.672-15.872-28.672-35.84s12.8-35.84 28.672-35.84z" fill="" p-id="54462"></path><path d="M288.768 400.896m-51.2 0a51.2 51.2 0 1 0 102.4 0 51.2 51.2 0 1 0-102.4 0Z" fill="" p-id="54463"></path><path d="M411.648 683.52h352.256c15.872 0 28.672 15.872 28.672 35.84s-12.8 35.84-28.672 35.84H411.648c-15.872 0-28.672-15.872-28.672-35.84s12.8-35.84 28.672-35.84z" fill="" p-id="54464"></path><path d="M288.768 719.36m-51.2 0a51.2 51.2 0 1 0 102.4 0 51.2 51.2 0 1 0-102.4 0Z" fill="" p-id="54465"></path></svg>