<?xml version="1.0" standalone="no"?><!DOCTYPE svg PUBLIC "-//W3C//DTD SVG 1.1//EN" "http://www.w3.org/Graphics/SVG/1.1/DTD/svg11.dtd"><svg t="1606123987081" class="icon" viewBox="0 0 1332 1024" version="1.1" xmlns="http://www.w3.org/2000/svg" p-id="34037" xmlns:xlink="http://www.w3.org/1999/xlink" width="260.15625" height="200"><defs><style type="text/css"></style></defs><path d="M1331.772709 22.341818s-618.988052-186.181818-1070.08 516.854026c-3.058701 4.588052-10.771948 20.878961 6.117402 23.472208a2616.785455 2616.785455 0 0 1 899.59065-465.454546S318.544657 437.261299 4.695306 1005.581299c-2.061299 3.191688-13.298701 19.549091 8.710649 18.352207 0 0 329.741299-259.923117 368.64-267.835844 52.729351-10.572468 210.451948 9.10961 428.55065-66.493506a452.155844 452.155844 0 0 0 223.218701-208.989091c0-14.362597-129.529351-53.992727-195.557403-76.8l251.411948 19.15013s259.524156-273.487792 242.102858-400.623377z" p-id="34038"></path></svg>