<?xml version="1.0" standalone="no"?><!DOCTYPE svg PUBLIC "-//W3C//DTD SVG 1.1//EN" "http://www.w3.org/Graphics/SVG/1.1/DTD/svg11.dtd"><svg t="1606124859321" class="icon" viewBox="0 0 1024 1024" version="1.1" xmlns="http://www.w3.org/2000/svg" p-id="50065" xmlns:xlink="http://www.w3.org/1999/xlink" width="200" height="200"><defs><style type="text/css"></style></defs><path d="M512 365.714c83.749-0.548 148.517 62.537 144.055 149.065 0 81.555-62.537 146.871-146.286 146.871a131.474 131.474 0 0 1-60.306-13.97c11.703-18.432 16.201-37.413 16.201-55.845 0-55.844-44.105-102.729-99.95-104.96 8.924-67.547 72.046-121.16 146.286-121.16zM512 0c281.417 0 512 230.034 512 512s-230.034 512-512 512S0 793.417 0 512 230.034 0 512 0z m0 916.81c223.342 0 404.81-181.468 404.81-404.847 0-223.305-181.468-404.772-404.847-404.772-223.268 0-404.736 181.467-404.736 404.809s181.468 404.81 404.81 404.81z m0-739.84c183.698 0 334.994 149.1 332.8 334.993 0 183.735-149.102 335.031-335.03 335.031-183.7 0-334.995-149.065-334.995-334.994 0-185.93 151.296-334.994 337.188-334.994z m199.9 518.728c44.105 0 76.47-32.402 74.24-72.594 0-35.182-25.674-65.317-60.307-69.778 2.231-13.97 2.231-25.71 2.231-37.413a215.04 215.04 0 0 0-216.613-216.649c-120.612 0-216.1 95.451-216.1 216.65-27.904 21.21-39.644 49.115-39.644 81.517a104.485 104.485 0 0 0 104.96 104.96c8.96 0 18.432 0 32.403-4.462 41.325 20.663 78.738 32.366 118.381 32.366a209.664 209.664 0 0 0 146.835-60.27c13.97 13.934 30.135 25.673 53.613 25.673z" p-id="50066"></path></svg>