<?xml version="1.0" standalone="no"?><!DOCTYPE svg PUBLIC "-//W3C//DTD SVG 1.1//EN" "http://www.w3.org/Graphics/SVG/1.1/DTD/svg11.dtd"><svg t="1606123484793" class="icon" viewBox="0 0 1024 1024" version="1.1" xmlns="http://www.w3.org/2000/svg" p-id="23199" xmlns:xlink="http://www.w3.org/1999/xlink" width="200" height="200"><defs><style type="text/css"></style></defs><path d="M1024 584c0 11.2-4 20.8-12 28.8s-17.6 12-28.8 12H840c0 72.8-14.4 135.2-43.2 185.6L929.6 944c8 8 12 17.6 12 28.8s-4 20.8-12 28.8-17.6 12-28.8 12-20.8-4-28.8-12L745.6 875.2c-2.4 2.4-5.6 4.8-9.6 8s-13.6 9.6-27.2 18.4c-13.6 8.8-27.2 16.8-41.6 23.2-14.4 7.2-31.2 12.8-52.8 18.4-20.8 5.6-41.6 8-62.4 8v-572h-80.8V952c-21.6 0-43.2-3.2-64.8-8.8-21.6-5.6-40-12.8-56-20.8-15.2-8-29.6-16.8-42.4-24.8-12.8-8-21.6-15.2-28-20.8l-9.6-8.8-116.8 132c-8.8 8.8-18.4 13.6-30.4 13.6-10.4 0-19.2-3.2-27.2-10.4-8-8-12.8-16.8-12.8-28.8-0.8-11.2 2.4-21.6 9.6-29.6L221.6 800C196.8 751.2 184 692.8 184 624.8H40.8c-11.2 0-20.8-4-28.8-12S0 595.2 0 584s4-20.8 12-28.8 17.6-12 28.8-12H184V354.4L73.6 244c-8-8-12-17.6-12-28.8s4-20.8 12-28.8 17.6-12 28.8-12 20.8 4 28.8 12l110.4 110.4h540L892 186.4c8-8 17.6-12 28.8-12s20.8 4 28.8 12 12 17.6 12 28.8-4 20.8-12 28.8L840 354.4v188h143.2c11.2 0 20.8 4 28.8 12 8 8.8 12 18.4 12 29.6zM716.8 215.2H307.2c0-56.8 20-104.8 60-144.8 40-40 88-60 144.8-60 56.8 0 104.8 20 144.8 60 40 39.2 60 88 60 144.8z m0 0" p-id="23200"></path></svg>