<?xml version="1.0" standalone="no"?><!DOCTYPE svg PUBLIC "-//W3C//DTD SVG 1.1//EN" "http://www.w3.org/Graphics/SVG/1.1/DTD/svg11.dtd"><svg t="1606124221737" class="icon" viewBox="0 0 1024 1024" version="1.1" xmlns="http://www.w3.org/2000/svg" p-id="37223" xmlns:xlink="http://www.w3.org/1999/xlink" width="200" height="200"><defs><style type="text/css"></style></defs><path d="M304.147647 516.312451a76.540467 76.540467 0 0 1-22.827859 149.723897 151.066712 151.066712 0 0 0-25.513489 0A259.834745 259.834745 0 0 0 268.563043 751.976522a74.526245 74.526245 0 0 1 36.256011-9.399707A77.211875 77.211875 0 0 1 361.888701 873.501299a246.406592 246.406592 0 0 0 98.696919 42.970087v-161.809234a102.725364 102.725364 0 0 1 0-177.251609v-93.997065a320.261429 320.261429 0 0 1-89.297212-26.184896h-4.699854a257.149114 257.149114 0 0 0-62.440907 61.098092m207.464951-261.17756A102.725364 102.725364 0 0 0 409.558641 362.560109a252.449261 252.449261 0 0 0 103.396772 22.156451 222.907326 222.907326 0 0 0 100.711141-22.156451 101.382549 101.382549 0 0 0-102.053956-105.410995m142.338413 201.422283a335.703804 335.703804 0 0 1-91.311435 26.856304v91.982842a102.725364 102.725364 0 0 1 0 177.251609v161.809234A246.406592 246.406592 0 0 0 661.336495 873.501299a77.211875 77.211875 0 0 1 55.055423-130.924484 74.526245 74.526245 0 0 1 36.256011 9.399707 259.834745 259.834745 0 0 0 14.770968-85.940174 151.066712 151.066712 0 0 0-25.513489 0 76.540467 76.540467 0 0 1-22.827859-149.723897 251.777853 251.777853 0 0 0-61.7695-60.426685M567.339429 103.396772a215.521842 215.521842 0 0 1 201.422283-102.053957 51.698386 51.698386 0 1 1 0 102.725364 116.153516 116.153516 0 0 0-112.125071 51.026979 147.709674 147.709674 0 0 0-13.428152 36.25601v7.385484a214.850435 214.850435 0 0 1 74.526245 173.223163 335.703804 335.703804 0 0 1 38.270233 30.88475l67.140761-67.140761a51.698386 51.698386 0 0 1 72.512022 0 51.026978 51.026978 0 0 1 0 72.512022l-76.540467 73.854837a353.83181 353.83181 0 0 1 46.998532 134.281522h106.082402a51.026978 51.026978 0 0 1 0 102.053956H866.115815a357.188848 357.188848 0 0 1-46.998532 134.281522l71.840614 71.840614a51.026978 51.026978 0 1 1-72.512022 72.512022l-67.140761-67.140761a359.203071 359.203071 0 0 1-484.756293 0l-67.140761 67.140761A51.026978 51.026978 0 1 1 134.281522 921.842647l67.140761-71.840614a357.188848 357.188848 0 0 1-46.998533-134.281522H51.026978a51.026978 51.026978 0 0 1 0-102.053957h106.082402a353.83181 353.83181 0 0 1 46.998533-134.281521L134.281522 410.230049A51.026978 51.026978 0 0 1 134.281522 336.375212a51.698386 51.698386 0 0 1 70.497799 0L268.563043 403.515973a335.703804 335.703804 0 0 1 38.270234-30.88475 215.521842 215.521842 0 0 1 76.540468-174.565978 42.970087 42.970087 0 0 1 0-6.042669 122.196185 122.196185 0 0 0-13.428153-36.927418 118.167739 118.167739 0 0 0-113.467885-51.698386A51.026978 51.026978 0 0 1 255.806299 0.671408a216.864658 216.864658 0 0 1 201.422283 102.053956 210.821989 210.821989 0 0 1 22.156451 54.384016 173.894571 173.894571 0 0 1 32.227565 0 183.965685 183.965685 0 0 1 33.57038 0 216.19325 216.19325 0 0 1 22.156451-53.712608" p-id="37224"></path></svg>