<?xml version="1.0" standalone="no"?><!DOCTYPE svg PUBLIC "-//W3C//DTD SVG 1.1//EN" "http://www.w3.org/Graphics/SVG/1.1/DTD/svg11.dtd"><svg t="1606123792824" class="icon" viewBox="0 0 1024 1024" version="1.1" xmlns="http://www.w3.org/2000/svg" p-id="28438" xmlns:xlink="http://www.w3.org/1999/xlink" width="200" height="200"><defs><style type="text/css"></style></defs><path d="M512 960A448 448 0 1 1 512 64a448 448 0 0 1 0 896z m281.408-549.248c-0.384-1.344-1.024-2.688-1.664-4.032a67.52 67.52 0 0 1-3.712-8.64l-0.32-0.32a116.48 116.48 0 0 0-8.32-17.28c-9.28-17.024-37.504-45.312-85.76-45.952-24.96 0.32-59.52 7.296-81.408 40.576a19.84 19.84 0 0 0-3.008 4.992L509.824 590.08 412.8 380.48a28.8 28.8 0 0 0-38.592-13.952 29.12 29.12 0 0 0-14.272 38.592l101.76 219.264 0.256 0.32c13.312 24.64 29.952 37.312 50.24 37.312 19.2-0.64 35.2-13.632 46.528-38.592l102.4-215.936c0-0.384 0.32-0.384 0.32-0.64 2.624-4.352 9.28-14.336 32.192-14.336h0.384c23.552 0.32 33.92 13.632 35.2 15.616a7.232 7.232 0 0 0 1.664 2.688 47.36 47.36 0 0 1 3.648 7.936c1.344 3.328 3.008 7.36 4.992 11.328 8.96 27.648 13.632 54.912 13.632 81.216 0 65.536-22.912 121.088-69.44 169.984-49.536 47.616-105.408 70.528-170.88 70.528-67.456 0-123.328-22.912-170.24-70.208-48.128-46.208-71.04-102.144-71.04-169.6 0-67.584 22.912-123.52 70.4-171.072a220.992 220.992 0 0 1 136.32-67.584c25.6-1.92 35.84-1.92 65.152 0 3.328 0.384 33.92 4.672 59.136 14.016a28.8 28.8 0 0 0 22.272-1.024 27.776 27.776 0 0 0 14.976-16.32l0.32-1.28v-0.384a28.8 28.8 0 0 0-17.6-35.904c-31.232-11.328-69.12-17.28-75.456-17.28a400.768 400.768 0 0 0-74.816 0c-67.136 8.32-126.656 37.568-171.84 85.12-58.88 58.624-87.04 127.808-87.04 211.648 0 83.84 28.544 153.088 87.04 211.648 57.856 57.856 128.96 87.168 211.392 87.168 80.128 0 151.296-29.312 212.096-87.552 57.536-60.16 86.784-131.072 86.784-211.2a331.584 331.584 0 0 0-17.28-101.184z" p-id="28439"></path></svg>