<?xml version="1.0" standalone="no"?><!DOCTYPE svg PUBLIC "-//W3C//DTD SVG 1.1//EN" "http://www.w3.org/Graphics/SVG/1.1/DTD/svg11.dtd"><svg t="1606124739549" class="icon" viewBox="0 0 1024 1024" version="1.1" xmlns="http://www.w3.org/2000/svg" p-id="48330" xmlns:xlink="http://www.w3.org/1999/xlink" width="200" height="200"><defs><style type="text/css"></style></defs><path d="M352.313 371.313h321.563v122.5H352.313zM352.313 548.5h321.563v124.688H352.313z" p-id="48331"></path><path d="M776.536 100.959H247.464c-55.229 0-100 44.771-100 100v622.082c0 55.229 44.771 100 100 100h529.073c55.229 0 100-44.771 100-100V200.959c-0.001-55.229-44.772-100-100.001-100z m-41.411 659.729h-61.25v-35H352.313v35h-63.438v-446.25h142.188c8.75-26.25 16.03-51.03 21.875-74.375l70 6.563-21.875 67.813h234.063v446.249z" p-id="48332"></path></svg>