<?xml version="1.0" standalone="no"?><!DOCTYPE svg PUBLIC "-//W3C//DTD SVG 1.1//EN" "http://www.w3.org/Graphics/SVG/1.1/DTD/svg11.dtd"><svg t="1606122419335" class="icon" viewBox="0 0 1024 1024" version="1.1" xmlns="http://www.w3.org/2000/svg" p-id="8993" xmlns:xlink="http://www.w3.org/1999/xlink" width="200" height="200"><defs><style type="text/css"></style></defs><path d="M510.7 62.9C262.9 62.9 62 263.8 62 511.6s200.9 448.7 448.7 448.7 448.7-200.9 448.7-448.7S758.5 62.9 510.7 62.9z m255.9 542.6c0 22.6-18.3 40.9-40.9 40.9H677c-7.6 0-13.6 6.1-13.6 13.6v26.5c0 22.6-18.3 40.9-40.9 40.9H604v19.1c0 22.6-18.3 40.9-40.9 40.9h-100c-22.6 0-40.9-18.3-40.9-40.9v-19.1h-24.8c-22.6 0-40.9-18.3-40.9-40.9V660c0-7.6-6.1-13.6-13.6-13.6h-42.3c-22.6 0-40.9-18.3-40.9-40.9V317.9c0-22.6 18.3-40.9 40.9-40.9h21.6v108.5c0 11.3 9.2 20.5 20.5 20.5s20.5-9.2 20.5-20.5V277H436v108.4c0 11.3 9.2 20.5 20.5 20.5s20.5-9.2 20.5-20.5V277h72.8v108.4c0 11.3 9.2 20.5 20.5 20.5s20.5-9.2 20.5-20.5V277h72.8v108.4c0 11.3 9.2 20.5 20.5 20.5s20.5-9.2 20.5-20.5V277h21.6c22.6 0 40.9 18.3 40.9 40.9v287.6z" p-id="8994"></path></svg>