<?xml version="1.0" standalone="no"?><!DOCTYPE svg PUBLIC "-//W3C//DTD SVG 1.1//EN" "http://www.w3.org/Graphics/SVG/1.1/DTD/svg11.dtd"><svg t="1606124451695" class="icon" viewBox="0 0 1396 1024" version="1.1" xmlns="http://www.w3.org/2000/svg" p-id="41630" xmlns:xlink="http://www.w3.org/1999/xlink" width="272.65625" height="200"><defs><style type="text/css"></style></defs><path d="M171.287273 251.810909C171.287273 112.64 286.440727 0 428.218182 0c142.056727 0 257.024 112.64 257.024 251.810909 0 139.077818-115.060364 251.717818-256.930909 251.717818-141.963636 0-256.930909-112.64-256.930909-251.717818z m353.28 694.365091v-17.408c0-128.465455 66.839273-241.105455 167.749818-307.665455a335.965091 335.965091 0 0 0-146.152727-33.512727H331.962182C148.573091 587.496727 0 732.997818 0 912.570182v21.038545c0 73.448727 148.573091 73.448727 331.962182 73.448728h204.8a148.107636 148.107636 0 0 1-12.194909-60.974546z m456.145454-775.074909c-117.666909 0-213.178182 93.556364-213.178182 208.989091 0 115.432727 95.511273 208.989091 213.178182 208.989091 117.853091 0 213.271273-93.556364 213.271273-208.989091 0-115.432727-95.418182-208.989091-213.178182-208.989091z m0 0c-117.666909 0-213.178182 93.556364-213.178182 208.989091 0 115.432727 95.511273 208.989091 213.178182 208.989091 117.853091 0 213.271273-93.556364 213.271273-208.989091 0-115.432727-95.418182-208.989091-213.178182-208.989091z m-79.872 487.796364c-152.203636 0-275.549091 120.738909-275.549091 269.870545v17.408c0 60.881455 123.345455 60.881455 275.549091 60.881455h177.803637c152.110545 0 275.362909-2.234182 275.362909-60.881455v-17.408c0-149.131636-123.252364-269.963636-275.362909-269.963636h-177.803637z" p-id="41631"></path></svg>