<?xml version="1.0" standalone="no"?><!DOCTYPE svg PUBLIC "-//W3C//DTD SVG 1.1//EN" "http://www.w3.org/Graphics/SVG/1.1/DTD/svg11.dtd"><svg t="1606125071727" class="icon" viewBox="0 0 1024 1024" version="1.1" xmlns="http://www.w3.org/2000/svg" p-id="53701" xmlns:xlink="http://www.w3.org/1999/xlink" width="200" height="200"><defs><style type="text/css"></style></defs><path d="M640 853.333333a42.666667 42.666667 0 1 1 0 85.333334H384a42.666667 42.666667 0 1 1 0-85.333334h256zM512 85.333333c235.648 0 426.666667 191.018667 426.666667 426.666667 0 96.085333-31.744 184.746667-85.333334 256H170.666667a424.789333 424.789333 0 0 1-85.333334-256C85.333333 276.352 276.352 85.333333 512 85.333333z m0 85.333334a341.333333 341.333333 0 0 0-341.333333 341.333333c0 56.234667 13.568 110.336 38.954666 158.592L216.32 682.666667H807.68a339.072 339.072 0 0 0 45.354667-156.629334L853.333333 512a341.333333 341.333333 0 0 0-341.333333-341.333333z m85.333333 85.333333a170.666667 170.666667 0 0 1 170.666667 170.666667 42.666667 42.666667 0 0 1-85.034667 4.992L682.666667 426.666667a85.333333 85.333333 0 0 0-85.333334-85.333334 42.666667 42.666667 0 1 1 0-85.333333z" p-id="53702"></path></svg>