<?xml version="1.0" standalone="no"?><!DOCTYPE svg PUBLIC "-//W3C//DTD SVG 1.1//EN" "http://www.w3.org/Graphics/SVG/1.1/DTD/svg11.dtd"><svg t="1606123660263" class="icon" viewBox="0 0 1024 1024" version="1.1" xmlns="http://www.w3.org/2000/svg" p-id="26818" xmlns:xlink="http://www.w3.org/1999/xlink" width="200" height="200"><defs><style type="text/css"></style></defs><path d="M703.44224 659.872l80.288-138.464c3.424-8.544 3.424-20.512-3.424-23.936l-92.256-63.264c0-11.968 3.424-23.936 3.424-39.328 0-15.36 0-27.328-3.424-39.296l83.712-66.688c8.544-8.544 8.544-15.36 3.424-23.936l-80.288-138.464c-3.424-3.424-11.968-8.544-23.904-3.424l-100.8 39.36c-20.48-15.424-44.416-27.392-68.32-39.36l-15.36-102.56C489.87424 8.544 477.90624 0 469.36224 0H308.81824c-6.816 0-18.784 8.544-18.784 15.36l-17.088 107.712c-23.904 8.544-44.416 23.936-68.32 39.36l-95.68-39.36c-11.968-3.392-20.48 0-27.328 8.544L1.29824 270.112c-3.392 3.424 0 15.36 8.576 23.936l83.712 63.232c0 11.968-3.424 23.936-3.424 39.328 0 15.36 0 27.36 3.424 39.328L9.87424 502.592c-8.544 8.544-8.544 15.36-3.424 23.936l78.592 136.768c3.424 3.424 11.936 8.544 23.904 3.424l100.8-39.328c20.48 15.36 44.416 27.36 68.32 39.328l15.36 102.56c0 8.544 8.576 15.36 20.512 15.36h160.576c8.544 0 20.512-8.512 20.512-15.36l15.36-102.56c23.936-11.968 47.84-23.936 68.352-39.328l100.8 39.328c6.816 5.12 18.784 1.696 23.904-6.848z m-312.64-126.496c-76.864 0-140.064-63.264-140.064-138.496 0-75.2 64.928-138.464 140.096-138.464 76.864 0 140.064 63.264 140.064 138.464 0 75.232-64.896 138.496-140.064 138.496z m630.4 341.888l-47.84-32.48c0-6.848 1.696-11.968 1.696-20.48 0-8.576 0-13.696-1.696-20.544l44.416-35.904a10.528 10.528 0 0 0 1.696-11.968l-40.992-71.776c-1.728-1.728-6.848-3.424-11.968-1.728l-52.96 20.512c-10.24-8.544-22.208-13.664-35.84-20.512l-8.576-52.992c1.728-6.848-3.392-10.24-8.544-10.24h-83.712c-3.392 0-10.24 3.392-10.24 8.544l-8.544 56.416c-11.936 3.392-22.208 11.936-35.84 20.48l-49.568-20.48c-6.848-1.728-10.24 0-15.36 3.392l-42.72 70.08c-1.696 1.728 0 8.576 3.424 12l44.416 32.48c0 6.816-1.728 11.968-1.728 20.48 0 8.576 0 13.696 1.728 20.544l-44.416 35.904c-3.424 5.12-3.424 8.544 0 11.968l40.96 71.776c1.728 1.728 6.848 3.424 12 1.728l52.96-20.512c10.24 8.544 22.208 13.664 35.84 20.48l8.576 53.024c0 3.424 3.392 8.544 10.24 8.544h83.712c3.424 0 10.24-3.424 10.24-8.544l8.544-52.992c11.968-6.848 25.6-11.968 35.84-20.512l52.992 20.48c3.424 1.728 10.24 0 11.968-3.392l40.96-71.808c1.728-3.424 1.728-10.24-1.664-11.968z m-203.296 18.816c-39.296 0-73.472-32.48-73.472-71.808 0-39.328 34.176-71.808 73.472-71.808 39.296 0 73.44 32.48 73.44 71.808 0 39.328-34.144 71.808-73.44 71.808z" p-id="26819"></path></svg>