<?xml version="1.0" standalone="no"?><!DOCTYPE svg PUBLIC "-//W3C//DTD SVG 1.1//EN" "http://www.w3.org/Graphics/SVG/1.1/DTD/svg11.dtd"><svg t="1606123069349" class="icon" viewBox="0 0 1024 1024" version="1.1" xmlns="http://www.w3.org/2000/svg" p-id="16397" xmlns:xlink="http://www.w3.org/1999/xlink" width="200" height="200"><defs><style type="text/css"></style></defs><path d="M923.61 635.12C855 701.79 696.51 748.46 512 748.46s-343-46.67-411.61-113.34C77 657.85 64 682.91 64 709.23c0 103.53 200.58 187.46 448 187.46s448-83.93 448-187.46c0-26.32-13-51.38-36.39-74.11z" p-id="16398"></path><path d="M921.75 437.89C852.13 503.6 694.86 549.45 512 549.45S171.87 503.6 102.25 437.89C77.66 461.09 64 486.77 64 513.78c0 103.53 200.58 187.45 448 187.45s448-83.92 448-187.45c0-27.01-13.66-52.69-38.25-75.89z" p-id="16399"></path><path d="M64 314.77a448 187.45 0 1 0 896 0 448 187.45 0 1 0-896 0z" p-id="16400"></path></svg>