<?xml version="1.0" standalone="no"?><!DOCTYPE svg PUBLIC "-//W3C//DTD SVG 1.1//EN" "http://www.w3.org/Graphics/SVG/1.1/DTD/svg11.dtd"><svg t="1606124465958" class="icon" viewBox="0 0 1024 1024" version="1.1" xmlns="http://www.w3.org/2000/svg" p-id="42387" xmlns:xlink="http://www.w3.org/1999/xlink" width="200" height="200"><defs><style type="text/css"></style></defs><path d="M827.597011 276.939135C763.671889 204.237108 697.552541 129.048292 637.211322 57.809082 560.632829-18.257424 479.227038-19.281397 409.011801 54.883447a8623.308796 8623.308796 0 0 1-187.97204 202.16137c-64.363967 67.728447-130.922161 137.797403-189.727422 203.84361-40.593184 46.371313-32.913392 83.600017-24.867897 101.665812 12.872793 28.451799 42.129142 45.420481 62.90115 45.420482h90.694681v308.508197c0 51.930019 36.93614 107.443941 91.938076 107.443941h175.757516V717.247183h192.214211V1024h177.074051c34.156787 0 92.011217-27.64725 92.011217-131.434147v-284.517991h66.411911a66.558193 66.558193 0 0 0 60.34122-36.863c14.043047-27.427827 9.947159-61.145769-11.921963-91.42609a14372.254467 14372.254467 0 0 0-176.269501-202.819637z" p-id="42388"></path></svg>