<?xml version="1.0" standalone="no"?><!DOCTYPE svg PUBLIC "-//W3C//DTD SVG 1.1//EN" "http://www.w3.org/Graphics/SVG/1.1/DTD/svg11.dtd"><svg t="1606123638020" class="icon" viewBox="0 0 1024 1024" version="1.1" xmlns="http://www.w3.org/2000/svg" p-id="25477" xmlns:xlink="http://www.w3.org/1999/xlink" width="200" height="200"><defs><style type="text/css"></style></defs><path d="M1016.737589 653.617021v29.049646c0 14.524823-7.262411 21.787234-7.262412 36.312056-7.262411 14.524823-14.524823 21.787234-21.787234 36.312057l-21.787234 21.787234c-7.262411 7.262411-14.524823 7.262411-21.787234 7.262412-7.262411 0-14.524823 0-21.787234-7.262412-7.262411 0-14.524823-7.262411-29.049645-7.262411h-36.312057c-14.524823 0-21.787234 0-36.312057 7.262411-14.524823 0-21.787234 7.262411-29.049645 21.787234-14.524823 21.787234-29.049645 36.312057-29.049646 65.361702 0 21.787234 0 43.574468 7.262412 65.361702 7.262411 14.524823 7.262411 29.049645 0 43.574469-7.262411 7.262411-14.524823 14.524823-21.787234 14.524822-7.262411 7.262411-21.787234 14.524823-29.049646 14.524823-14.524823 7.262411-21.787234 7.262411-36.312056 14.524823s-21.787234 7.262411-36.312057 7.262411c-7.262411 0-14.524823 0-21.787234-7.262411l-14.524823-14.524823c-7.262411-21.787234-21.787234-43.574468-43.574468-58.099291-21.787234-14.524823-43.574468-21.787234-65.361702-21.787234-21.787234 0-43.574468 7.262411-65.361702 21.787234-21.787234 14.524823-36.312057 36.312057-43.574468 58.099291 0 7.262411-7.262411 14.524823-14.524823 21.787234h-21.787234c-7.262411 0-21.787234 0-36.312057-7.262411-14.524823 0-29.049645-7.262411-36.312056-14.524823-14.524823-7.262411-21.787234-14.524823-36.312057-21.787234l-21.787234-21.787234c0-7.262411-7.262411-14.524823-7.262412-14.524823 0-7.262411 0-14.524823 7.262412-29.049645s14.524823-36.312057 7.262411-58.099291c0-21.787234-14.524823-43.574468-29.049645-58.099291-7.262411-14.524823-21.787234-14.524823-36.312057-21.787234-14.524823 0-29.049645-7.262411-43.574468-7.262411-14.524823 0-29.049645 0-43.574468 7.262411H50.836879c-7.262411 0-14.524823-7.262411-21.787234-21.787234-7.262411-7.262411-14.524823-21.787234-21.787234-36.312057 0-7.262411 0-21.787234-7.262411-29.049645v-36.312057c0-14.524823 7.262411-29.049645 21.787234-29.049645 21.787234-7.262411 43.574468-21.787234 58.099291-43.574468 21.787234-21.787234 29.049645-43.574468 29.049645-65.361702 0-29.049645-7.262411-50.836879-29.049645-65.361702-14.524823-21.787234-36.312057-36.312057-58.099291-43.574469-7.262411 0-14.524823-7.262411-14.524823-14.524822C0 377.64539 0 370.382979 0 363.120567c0-7.262411 0-21.787234 7.262411-29.049645 0-14.524823 7.262411-21.787234 14.524823-36.312057s7.262411-21.787234 14.524823-29.049645l21.787234-21.787234c7.262411 0 14.524823-7.262411 14.524822-7.262412 7.262411 0 14.524823 0 14.524823 7.262412 21.787234 7.262411 43.574468 14.524823 65.361702 7.262411 29.049645 0 50.836879-14.524823 65.361702-29.049645 7.262411-7.262411 14.524823-21.787234 21.787234-29.049646 0-14.524823 7.262411-29.049645 7.262412-43.574468v-36.312056-21.787234c0-7.262411 0-7.262411-7.262412-14.524823V65.361702c7.262411-7.262411 14.524823-21.787234 21.787235-29.049645 14.524823-7.262411 21.787234-14.524823 36.312056-21.787234 14.524823-7.262411 29.049645-7.262411 36.312057-14.524823 14.524823 7.262411 29.049645 7.262411 36.312057 7.262411 7.262411 0 14.524823 0 21.787234 7.262412 7.262411 7.262411 7.262411 14.524823 14.524822 21.787234 7.262411 21.787234 21.787234 36.312057 36.312057 50.836879 14.524823 14.524823 36.312057 21.787234 65.361702 21.787234s50.836879-7.262411 65.361702-21.787234c21.787234-14.524823 36.312057-29.049645 43.574469-50.836879 0-7.262411 7.262411-14.524823 14.524822-14.524823 0-14.524823 7.262411-14.524823 14.524823-14.524823s21.787234 0 36.312057 7.262412c14.524823 0 21.787234 7.262411 36.312056 14.524822s21.787234 14.524823 29.049646 21.787234c7.262411 7.262411 14.524823 14.524823 21.787234 29.049646 0 7.262411 7.262411 14.524823 0 21.787234 0 7.262411 0 14.524823-7.262412 14.524823-7.262411 21.787234-14.524823 43.574468-7.262411 65.361702 0 21.787234 14.524823 43.574468 29.049646 58.09929 14.524823 14.524823 36.312057 29.049645 65.361702 29.049646s50.836879 0 72.624113-14.524823c7.262411 0 14.524823-7.262411 21.787234-7.262411 7.262411 0 14.524823 7.262411 21.787234 7.262411 7.262411 7.262411 21.787234 29.049645 29.049646 43.574468s21.787234 43.574468 21.787234 65.361702c0 14.524823 0 21.787234-7.262412 29.049646l-14.524822 14.524822c-21.787234 7.262411-43.574468 21.787234-58.099291 43.574469-14.524823 21.787234-21.787234 43.574468-21.787234 65.361702 0 21.787234 7.262411 43.574468 21.787234 65.361702 14.524823 21.787234 29.049645 29.049645 50.836879 36.312057 7.262411 0 7.262411 7.262411 14.524823 7.262411 7.262411 7.262411 7.262411 21.787234 14.524823 29.049645z m-508.368795 101.673759c29.049645 0 65.361702-7.262411 94.411348-21.787234 29.049645-14.524823 50.836879-29.049645 72.624113-50.836879 21.787234-21.787234 36.312057-50.836879 50.83688-79.886525 14.524823-29.049645 21.787234-58.099291 21.787234-94.411348s-7.262411-65.361702-21.787234-94.411347c-14.524823-21.787234-29.049645-43.574468-50.83688-65.361702-21.787234-21.787234-43.574468-43.574468-72.624113-50.83688-29.049645-14.524823-65.361702-21.787234-94.411348-21.787234-36.312057 0-65.361702 7.262411-94.411347 21.787234-29.049645 7.262411-50.836879 29.049645-72.624114 50.83688-21.787234 21.787234-43.574468 43.574468-50.836879 72.624113-14.524823 29.049645-21.787234 58.099291-21.787234 94.411348s7.262411 65.361702 21.787234 94.411347c14.524823 29.049645 29.049645 50.836879 50.836879 72.624114 21.787234 21.787234 43.574468 36.312057 72.624114 50.836879 29.049645 14.524823 58.099291 21.787234 94.411347 21.787234z m0 0" p-id="25478"></path></svg>