<?xml version="1.0" standalone="no"?><!DOCTYPE svg PUBLIC "-//W3C//DTD SVG 1.1//EN" "http://www.w3.org/Graphics/SVG/1.1/DTD/svg11.dtd"><svg t="1606122620691" class="icon" viewBox="0 0 1024 1024" version="1.1" xmlns="http://www.w3.org/2000/svg" p-id="10909" xmlns:xlink="http://www.w3.org/1999/xlink" width="200" height="200"><defs><style type="text/css"></style></defs><path d="M896.512 38.4H129.024C82.432 38.4 44.544 76.288 44.544 122.88v97.28c0 46.592 37.888 84.48 84.48 84.48h767.488c46.592 0 84.48-37.888 84.48-84.48V122.88c0.512-46.592-37.888-84.48-84.48-84.48zM839.68 221.696H302.592c-27.648 0-50.176-22.528-50.176-50.176s22.528-50.176 50.176-50.176H839.68c27.648 0 50.176 22.528 50.176 50.176s-22.528 50.176-50.176 50.176zM896.512 714.752H129.024c-46.592 0-84.48 37.888-84.48 84.48v97.28c0 46.592 37.888 84.48 84.48 84.48h767.488c46.592 0 84.48-37.888 84.48-84.48v-97.28c0.512-46.592-37.888-84.48-84.48-84.48zM839.68 898.048h-272.384c-27.648 0-50.176-22.528-50.176-50.176s22.528-50.176 50.176-50.176H839.68c27.648 0 50.176 22.528 50.176 50.176s-22.528 50.176-50.176 50.176zM896.512 379.904H129.024c-46.592 0-84.48 37.888-84.48 84.48v97.28c0 46.592 37.888 84.48 84.48 84.48h767.488c46.592 0 84.48-37.888 84.48-84.48v-97.28c0.512-46.592-37.888-84.48-84.48-84.48z m3.584 140.8c0 25.088-20.48 45.568-45.568 45.568h-90.112c-25.088 0-45.568-20.48-45.568-45.568v-14.848c0-25.088 20.48-45.568 45.568-45.568h90.112c25.088 0 45.568 20.48 45.568 45.568v14.848z" p-id="10910"></path></svg>